<?xml version="1.0" encoding="UTF-8"?>
<!DOCTYPE svg PUBLIC "-//W3C//DTD SVG 1.1//EN" "http://www.w3.org/Graphics/SVG/1.1/DTD/svg11.dtd">
<svg xmlns="http://www.w3.org/2000/svg" version="1.1" width="1024px" height="1024px" style="shape-rendering:geometricPrecision; text-rendering:geometricPrecision; image-rendering:optimizeQuality; fill-rule:evenodd; clip-rule:evenodd" xmlns:xlink="http://www.w3.org/1999/xlink">
<g><path style="opacity:1" fill="#fafafa" d="M -0.5,-0.5 C 340.833,-0.5 682.167,-0.5 1023.5,-0.5C 1023.5,340.833 1023.5,682.167 1023.5,1023.5C 682.167,1023.5 340.833,1023.5 -0.5,1023.5C -0.5,682.167 -0.5,340.833 -0.5,-0.5 Z"/></g>
<g><path style="opacity:1" fill="#070707" d="M 538.5,200.5 C 538.5,201.5 538.5,202.5 538.5,203.5C 540.527,203.662 542.527,203.495 544.5,203C 543.833,202.667 543.167,202.333 542.5,202C 542.728,201.601 543.062,201.435 543.5,201.5C 559.495,202.332 575.162,204.999 590.5,209.5C 591.167,209.333 591.833,209.167 592.5,209C 590.475,206.716 590.475,204.216 592.5,201.5C 591.244,199.384 591.91,198.051 594.5,197.5C 597,195.811 597.833,193.478 597,190.5C 596.667,191.167 596.333,191.833 596,192.5C 595.329,191.748 594.496,191.414 593.5,191.5C 593.452,188.708 594.785,186.875 597.5,186C 597.167,185.667 596.833,185.333 596.5,185C 601.629,184.294 602.962,181.961 600.5,178C 602.591,174.074 605.258,170.574 608.5,167.5C 608.333,167.167 608.167,166.833 608,166.5C 607.163,168.007 605.996,168.507 604.5,168C 606.441,166.184 607.108,164.184 606.5,162C 607.218,160.013 608.218,158.179 609.5,156.5C 609.069,155.707 608.735,154.873 608.5,154C 610.187,151.277 611.687,148.443 613,145.5C 613.709,139.999 615.042,134.665 617,129.5C 617.667,128.833 618.333,128.167 619,127.5C 622.297,131.434 622.797,131.268 620.5,127C 622.422,123.654 623.089,123.654 622.5,127C 622.974,128.729 623.974,129.895 625.5,130.5C 624.737,131.268 623.737,131.768 622.5,132C 623.748,132.861 625.081,133.361 626.5,133.5C 628.118,134.451 629.451,135.784 630.5,137.5C 630.833,136.833 631.167,136.167 631.5,135.5C 631.833,136 632.167,136.5 632.5,137C 631.886,139.854 631.219,142.687 630.5,145.5C 630.624,146.107 630.957,146.44 631.5,146.5C 631.5,146.833 631.5,147.167 631.5,147.5C 628.527,147.965 627.36,149.632 628,152.5C 628.615,150.884 629.615,149.551 631,148.5C 631.464,149.094 631.631,149.761 631.5,150.5C 630.209,151.542 630.209,152.708 631.5,154C 628.724,155.708 627.057,158.208 626.5,161.5C 625.094,161.973 624.427,162.973 624.5,164.5C 624.957,170.302 624.29,175.968 622.5,181.5C 621.293,182.189 619.959,182.355 618.5,182C 617.402,182.77 617.402,183.603 618.5,184.5C 618.369,185.239 618.536,185.906 619,186.5C 619.654,185.304 620.154,185.304 620.5,186.5C 618.973,188.193 617.64,190.027 616.5,192C 616.833,192.333 617.167,192.667 617.5,193C 616.009,195.308 615.009,197.808 614.5,200.5C 612.973,200.427 611.973,201.094 611.5,202.5C 610.549,204.118 609.216,205.451 607.5,206.5C 607.977,207.478 608.643,208.311 609.5,209C 609.167,209.333 608.833,209.667 608.5,210C 610.167,210.333 611.833,210.667 613.5,211C 611.699,211.317 611.366,211.984 612.5,213C 616.58,213.099 620.247,214.266 623.5,216.5C 627.454,215.582 631.12,216.582 634.5,219.5C 635.768,218.572 637.101,218.405 638.5,219C 646.54,224.015 655.206,228.015 664.5,231C 667.604,234.437 671.271,237.104 675.5,239C 676.743,240.154 677.743,241.488 678.5,243C 681.307,245.27 684.307,246.27 687.5,246C 690.256,249.427 693.59,252.093 697.5,254C 700.192,256.557 702.525,259.391 704.5,262.5C 707.109,265.144 710.109,267.311 713.5,269C 712.692,269.308 712.025,269.808 711.5,270.5C 714.304,272.138 716.971,273.971 719.5,276C 720.337,277.011 720.67,278.178 720.5,279.5C 722.929,279.585 724.929,280.585 726.5,282.5C 728.474,286.308 731.308,289.308 735,291.5C 735.333,292.5 735.667,293.5 736,294.5C 737.147,293.542 738.147,293.875 739,295.5C 739.202,297.256 739.702,298.922 740.5,300.5C 742.332,301.248 743.999,302.248 745.5,303.5C 745.167,304.167 744.833,304.833 744.5,305.5C 748.746,308.528 751.746,312.028 753.5,316C 754.624,316.249 755.624,316.749 756.5,317.5C 755.674,318.451 755.508,319.451 756,320.5C 756.333,320.167 756.667,319.833 757,319.5C 761.486,325.322 765.986,331.156 770.5,337C 771.814,340.616 773.314,344.116 775,347.5C 775.333,346.833 775.667,346.167 776,345.5C 777.579,347.041 779.413,348.208 781.5,349C 781.167,349.333 780.833,349.667 780.5,350C 785.123,356.486 788.956,362.986 792,369.5C 793.131,368.396 793.965,368.729 794.5,370.5C 794.291,371.086 793.957,371.586 793.5,372C 796.488,376.426 798.655,381.259 800,386.5C 800.637,388.303 801.803,389.636 803.5,390.5C 803.013,391.446 802.68,392.446 802.5,393.5C 804.43,398.79 806.264,404.124 808,409.5C 812.185,414.531 815.352,420.197 817.5,426.5C 820.545,433.734 822.212,441.401 822.5,449.5C 821.883,449.611 821.383,449.944 821,450.5C 820.299,453.928 820.632,457.262 822,460.5C 822.333,460.167 822.667,459.833 823,459.5C 823.333,461.833 823.667,464.167 824,466.5C 824.333,465.833 824.667,465.167 825,464.5C 827.397,472.98 829.23,481.646 830.5,490.5C 829.788,489.261 828.788,488.761 827.5,489C 828.191,490.067 828.691,491.234 829,492.5C 829.77,493.598 830.603,493.598 831.5,492.5C 831.509,494.308 831.009,495.975 830,497.5C 829.333,496.833 828.667,496.167 828,495.5C 827.176,498.785 826.676,502.118 826.5,505.5C 828.495,518.912 829.329,532.246 829,545.5C 829.333,547.833 829.667,550.167 830,552.5C 830.638,551.391 831.138,550.225 831.5,549C 830.713,546.901 830.38,544.734 830.5,542.5C 830.828,539.315 830.828,535.982 830.5,532.5C 831.625,530.623 831.291,528.79 829.5,527C 831.778,522.91 831.778,518.91 829.5,515C 831.817,509.898 831.484,504.898 828.5,500C 830.333,499.5 831.5,498.333 832,496.5C 832.161,500.764 832.995,504.93 834.5,509C 833.861,512.891 833.527,516.724 833.5,520.5C 833.782,523.131 834.449,525.631 835.5,528C 832.517,533.543 832.184,539.21 834.5,545C 833.996,549.876 833.33,554.71 832.5,559.5C 832.709,560.086 833.043,560.586 833.5,561C 832.447,563.246 831.114,565.246 829.5,567C 829.075,570.424 829.075,573.924 829.5,577.5C 829.154,578.696 828.654,578.696 828,577.5C 826.632,578.993 826.465,580.493 827.5,582C 825.606,583.079 825.273,584.413 826.5,586C 824.025,590.811 822.525,595.977 822,601.5C 821.444,599.405 820.944,599.238 820.5,601C 821.526,603.46 821.526,605.96 820.5,608.5C 818.165,612.278 816.498,616.445 815.5,621C 816.547,622.578 816.547,624.078 815.5,625.5C 814.914,625.291 814.414,624.957 814,624.5C 813.506,626.134 813.34,627.801 813.5,629.5C 812.167,631.167 812.167,632.833 813.5,634.5C 812.974,636.23 811.974,637.564 810.5,638.5C 810.108,640.179 809.608,641.846 809,643.5C 808.751,642.376 808.251,641.376 807.5,640.5C 807.167,641 806.833,641.5 806.5,642C 808.527,645.824 807.527,647.99 803.5,648.5C 801.948,657.945 798.448,666.945 793,675.5C 792.667,677.167 792.333,678.833 792,680.5C 790.183,682.416 789.016,684.749 788.5,687.5C 787.575,686.359 786.741,686.359 786,687.5C 784.459,689.477 783.959,691.477 784.5,693.5C 782.991,698.009 780.324,701.676 776.5,704.5C 777.167,704.833 777.833,705.167 778.5,705.5C 777.162,707.275 775.829,708.941 774.5,710.5C 774.631,709.761 774.464,709.094 774,708.5C 773.003,710.323 771.836,711.99 770.5,713.5C 769.145,716.797 769.645,717.13 772,714.5C 772.667,715.167 772.667,715.833 772,716.5C 769.074,717.269 766.907,718.935 765.5,721.5C 762.893,722.459 760.893,724.126 759.5,726.5C 757.804,726.685 756.471,727.519 755.5,729C 757.126,728.805 758.793,728.805 760.5,729C 758.951,730.214 757.785,731.714 757,733.5C 756.333,734.833 755.667,734.833 755,733.5C 752.257,736.654 749.757,739.988 747.5,743.5C 746.04,745.422 744.373,746.089 742.5,745.5C 743.661,747.224 743.495,748.89 742,750.5C 734.683,756.65 727.85,763.317 721.5,770.5C 720.808,769.975 720.308,769.308 720,768.5C 718.383,769.536 718.216,770.703 719.5,772C 716.98,773.763 714.647,775.763 712.5,778C 713.833,779 713.833,780 712.5,781C 708.374,782.966 704.374,785.132 700.5,787.5C 699.614,788.325 699.281,789.325 699.5,790.5C 677.421,806.657 653.254,820.324 627,831.5C 625.582,829.637 623.749,829.137 621.5,830C 622.833,830.333 624.167,830.667 625.5,831C 623.541,831.931 621.541,832.764 619.5,833.5C 619.167,832.833 618.833,832.167 618.5,831.5C 617.335,832.491 616.168,833.491 615,834.5C 610.975,835.617 607.142,837.117 603.5,839C 598.971,839.908 594.471,840.741 590,841.5C 589.586,841.043 589.086,840.709 588.5,840.5C 585.913,841.415 583.413,842.415 581,843.5C 580.167,843.333 579.333,843.167 578.5,843C 579.833,842.667 581.167,842.333 582.5,842C 583.451,841.282 583.617,840.449 583,839.5C 578.6,841.233 574.1,842.9 569.5,844.5C 568.393,843.978 567.226,843.645 566,843.5C 561.856,844.164 557.689,844.664 553.5,845C 552.167,845.667 552.167,846.333 553.5,847C 549.987,845.873 546.653,846.373 543.5,848.5C 542.808,847.975 542.308,847.308 542,846.5C 540.266,847.249 538.433,847.749 536.5,848C 521.47,848.832 506.47,848.499 491.5,847C 490.213,845.214 488.713,845.047 487,846.5C 481.842,846.141 476.842,845.141 472,843.5C 470.135,844.368 468.302,844.034 466.5,842.5C 463.897,843.562 461.23,843.728 458.5,843C 458.833,842.667 459.167,842.333 459.5,842C 458,840.5 456.5,839 455,837.5C 454.493,838.996 454.993,840.163 456.5,841C 454.925,840.621 453.425,840.788 452,841.5C 446.498,840.361 441.165,838.695 436,836.5C 435.275,837.059 434.442,837.392 433.5,837.5C 419.381,833.427 405.214,830.093 391,827.5C 390.586,827.957 390.086,828.291 389.5,828.5C 389.795,827.174 389.295,825.841 388,824.5C 387.439,825.022 386.772,825.355 386,825.5C 379.083,822.88 372.416,819.88 366,816.5C 365.667,816.833 365.333,817.167 365,817.5C 352.677,810.257 340.177,803.423 327.5,797C 323.94,793.112 319.607,790.446 314.5,789C 298.751,774.923 283.251,760.423 268,745.5C 268,744.167 268,742.833 268,741.5C 266.984,740.366 266.317,740.699 266,742.5C 259.301,731.792 251.801,721.625 243.5,712C 243.833,711.667 244.167,711.333 244.5,711C 240.403,706.138 237.07,700.805 234.5,695C 235.167,694.667 235.833,694.333 236.5,694C 233.283,690.73 231.283,686.897 230.5,682.5C 226.724,678.949 224.558,674.616 224,669.5C 225,670.833 226,672.167 227,673.5C 227.167,673.167 227.333,672.833 227.5,672.5C 226.49,669.745 224.657,667.745 222,666.5C 221.209,665.255 220.709,663.922 220.5,662.5C 217.743,660.629 216.41,658.295 216.5,655.5C 217.48,656.981 218.647,658.315 220,659.5C 219.738,656.974 218.905,654.64 217.5,652.5C 217.868,649.376 216.702,647.043 214,645.5C 213.667,646.167 213.333,646.833 213,647.5C 211.812,646.437 211.312,645.103 211.5,643.5C 211.36,641.876 212.027,640.71 213.5,640C 212.809,638.933 212.309,637.766 212,636.5C 211.71,638.111 210.877,639.444 209.5,640.5C 208.295,639.328 208.295,637.995 209.5,636.5C 205.251,629.502 202.251,622.002 200.5,614C 201.742,613.689 202.742,614.189 203.5,615.5C 204.206,613.234 204.039,610.901 203,608.5C 201.383,609.536 201.216,610.703 202.5,612C 201.551,612.617 200.718,612.451 200,611.5C 196.492,601.808 194.992,592.142 195.5,582.5C 193.698,581.685 192.698,580.185 192.5,578C 192.2,574.216 192.2,570.383 192.5,566.5C 191.042,562.967 190.042,559.301 189.5,555.5C 190.833,553.5 190.833,551.5 189.5,549.5C 190.025,548.808 190.692,548.308 191.5,548C 190.745,543.557 190.078,539.057 189.5,534.5C 192.505,529.12 193.172,523.453 191.5,517.5C 192.262,510.529 192.762,503.529 193,496.5C 193.419,495.328 194.085,494.328 195,493.5C 195.167,494 195.333,494.5 195.5,495C 193.127,499.06 193.127,503.227 195.5,507.5C 197.517,500.242 197.851,492.908 196.5,485.5C 196.249,487.987 195.749,490.32 195,492.5C 194.183,489.036 194.517,485.702 196,482.5C 196.893,483.711 197.726,483.711 198.5,482.5C 197.833,481.833 197.167,481.167 196.5,480.5C 197.184,477.425 197.517,474.425 197.5,471.5C 200.082,469.417 200.082,467.083 197.5,464.5C 200.281,462.309 201.281,459.642 200.5,456.5C 199.749,457.376 199.249,458.376 199,459.5C 198.971,454.897 199.804,450.397 201.5,446C 200.333,443.929 200.999,442.429 203.5,441.5C 202.559,441.511 201.892,441.011 201.5,440C 203.859,434.534 205.359,429.034 206,423.5C 206.333,424.167 206.667,424.833 207,425.5C 210.678,419.15 212.678,412.484 213,405.5C 216.461,398.451 219.127,391.117 221,383.5C 223.479,381.749 224.312,379.582 223.5,377C 226.875,375.971 228.042,373.804 227,370.5C 226.346,371.696 225.846,371.696 225.5,370.5C 225.624,369.893 225.957,369.56 226.5,369.5C 228.017,369.489 229.184,368.823 230,367.5C 230.36,365.579 231.194,363.912 232.5,362.5C 232.376,361.893 232.043,361.56 231.5,361.5C 234.117,356.886 237.117,352.553 240.5,348.5C 243.269,344.317 245.769,339.317 248,333.5C 249.963,329.913 251.463,329.913 252.5,333.5C 250.851,334.648 249.351,335.981 248,337.5C 247.849,340.119 247.015,342.453 245.5,344.5C 245.833,344.833 246.167,345.167 246.5,345.5C 254.101,336.473 261.101,326.973 267.5,317C 262.182,319.973 257.682,324.139 254,329.5C 253.333,328.167 253.333,326.833 254,325.5C 255.815,323.595 257.815,321.928 260,320.5C 260.333,319.167 260.667,317.833 261,316.5C 268.361,307.035 276.194,297.868 284.5,289C 286.345,287.872 288.345,287.372 290.5,287.5C 290.357,285.738 290.691,284.071 291.5,282.5C 294.607,279.44 297.941,276.606 301.5,274C 300.167,273.333 300.167,272.667 301.5,272C 308.257,269.889 313.924,266.222 318.5,261C 323.246,260.152 326.58,257.652 328.5,253.5C 329.978,253.762 331.311,253.429 332.5,252.5C 335.087,251.111 337.421,249.278 339.5,247C 346.031,244.11 352.364,240.776 358.5,237C 367.307,233.944 375.973,230.278 384.5,226C 384.167,225.667 383.833,225.333 383.5,225C 392.851,222.894 401.851,220.06 410.5,216.5C 407.67,214.638 406.837,211.971 408,208.5C 408.423,209.956 409.256,210.456 410.5,210C 407.225,206.715 404.725,202.881 403,198.5C 401.928,193.617 400.261,188.95 398,184.5C 395.75,176.431 394.25,168.431 393.5,160.5C 392.85,158.565 392.517,156.565 392.5,154.5C 392.794,152.724 392.96,150.724 393,148.5C 395.335,145.834 397.169,142.834 398.5,139.5C 399.274,138.289 400.107,138.289 401,139.5C 402.211,136.241 404.044,133.408 406.5,131C 407.816,130.472 408.483,130.972 408.5,132.5C 406.352,132.389 406.019,133.056 407.5,134.5C 409.815,135.234 411.648,136.568 413,138.5C 413.333,137.5 413.667,136.5 414,135.5C 416.093,141.238 415.926,146.904 413.5,152.5C 415.088,157.855 417.421,162.855 420.5,167.5C 419.726,168.711 418.893,168.711 418,167.5C 417.286,172.644 418.453,177.31 421.5,181.5C 420.098,182.842 420.431,183.676 422.5,184C 420.998,184.583 419.665,185.416 418.5,186.5C 418.846,187.696 419.346,187.696 420,186.5C 420.396,188.96 421.563,190.96 423.5,192.5C 422.833,192.833 422.167,193.167 421.5,193.5C 424.09,196.555 425.09,199.889 424.5,203.5C 425.276,205.356 426.609,206.689 428.5,207.5C 427.339,209.224 427.505,210.89 429,212.5C 440.294,209.794 451.794,206.627 463.5,203C 472.365,201.69 481.198,200.524 490,199.5C 490.163,197.324 490.996,195.491 492.5,194C 489.907,191.521 489.907,189.021 492.5,186.5C 491.441,182.539 491.441,178.539 492.5,174.5C 493.123,170.48 494.457,166.314 496.5,162C 495.149,157.866 495.815,154.033 498.5,150.5C 497.833,150.167 497.167,149.833 496.5,149.5C 498.713,147.458 499.38,145.125 498.5,142.5C 500.074,141.016 501.407,139.349 502.5,137.5C 501.585,136.672 500.919,135.672 500.5,134.5C 502.262,132.892 503.428,130.892 504,128.5C 504.333,128.833 504.667,129.167 505,129.5C 505.72,127.888 505.554,126.388 504.5,125C 507.246,121.672 509.08,117.838 510,113.5C 510.779,114.728 511.779,115.728 513,116.5C 514.162,115.813 515.328,115.647 516.5,116C 515.396,117.131 515.729,117.965 517.5,118.5C 518.842,117.098 519.676,117.431 520,119.5C 520.957,117.291 522.124,117.457 523.5,120C 521.842,120.725 521.342,121.892 522,123.5C 522.333,122.833 522.667,122.167 523,121.5C 523.667,125.5 523.667,129.5 523,133.5C 521.649,133.446 520.482,133.946 519.5,135C 522.186,138.125 522.02,141.958 519,146.5C 513.754,148.238 513.254,150.738 517.5,154C 515.199,158.724 513.866,163.724 513.5,169C 513.759,170.261 514.426,171.261 515.5,172C 514.551,172.617 513.718,172.451 513,171.5C 512.253,177.247 510.753,182.747 508.5,188C 509.43,189.194 510.097,190.527 510.5,192C 510.18,194.351 509.847,196.684 509.5,199C 516.5,199.333 523.5,199.667 530.5,200C 529.304,200.654 529.304,201.154 530.5,201.5C 533.084,200.607 535.751,200.274 538.5,200.5 Z"/></g>
<g><path style="opacity:1" fill="#767675" d="M 626.5,133.5 C 625.081,133.361 623.748,132.861 622.5,132C 623.737,131.768 624.737,131.268 625.5,130.5C 625.435,130.062 625.601,129.728 626,129.5C 626.645,130.646 627.478,131.646 628.5,132.5C 628.043,133.298 627.376,133.631 626.5,133.5 Z"/></g>
<g><path style="opacity:1" fill="#171718" d="M 408.5,132.5 C 409.289,132.783 409.956,133.283 410.5,134C 409.184,134.528 408.517,134.028 408.5,132.5 Z"/></g>
<g><path style="opacity:1" fill="#c2c1c1" d="M 411.5,146.5 C 413.465,146.948 413.798,147.948 412.5,149.5C 411.614,148.675 411.281,147.675 411.5,146.5 Z"/></g>
<g><path style="opacity:1" fill="#868686" d="M 631.5,147.5 C 631.5,147.167 631.5,146.833 631.5,146.5C 632.693,146.97 633.36,147.97 633.5,149.5C 633.167,150.5 632.833,151.5 632.5,152.5C 631.702,152.043 631.369,151.376 631.5,150.5C 632.833,149.5 632.833,148.5 631.5,147.5 Z"/></g>
<g><path style="opacity:1" fill="#ececec" d="M 631.5,147.5 C 632.833,148.5 632.833,149.5 631.5,150.5C 631.631,149.761 631.464,149.094 631,148.5C 629.615,149.551 628.615,150.884 628,152.5C 627.36,149.632 628.527,147.965 631.5,147.5 Z"/></g>
<g><path style="opacity:1" fill="#737374" d="M 392.5,154.5 C 392.517,156.565 392.85,158.565 393.5,160.5C 392.307,160.03 391.64,159.03 391.5,157.5C 391.52,156.274 391.853,155.274 392.5,154.5 Z"/></g>
<g><path style="opacity:1" fill="#6a6a6a" d="M 511.5,153.5 C 512.765,154.514 513.431,156.014 513.5,158C 513.167,159.5 512.833,161 512.5,162.5C 511.889,159.393 511.556,156.393 511.5,153.5 Z"/></g>
<g><path style="opacity:1" fill="#707071" d="M 626.5,161.5 C 627.239,161.369 627.906,161.536 628.5,162C 627.529,163.481 626.196,164.315 624.5,164.5C 624.427,162.973 625.094,161.973 626.5,161.5 Z"/></g>
<g><path style="opacity:1" fill="#afb0b0" d="M 604.5,173.5 C 605.586,173.62 606.253,174.287 606.5,175.5C 606.167,176.167 605.833,176.833 605.5,177.5C 604.571,176.311 604.238,174.978 604.5,173.5 Z"/></g>
<g><path style="opacity:1" fill="#7d7d7d" d="M 398.5,175.5 C 399.922,175.75 400.922,176.583 401.5,178C 399.511,178.519 398.511,177.686 398.5,175.5 Z"/></g>
<g><path style="opacity:1" fill="#8d8d8e" d="M 494.5,178.5 C 495.713,179.497 495.546,180.497 494,181.5C 493.53,180.423 493.697,179.423 494.5,178.5 Z"/></g>
<g><path style="opacity:1" fill="#8c8d8e" d="M 622.5,181.5 C 621.965,183.446 620.632,184.446 618.5,184.5C 617.402,183.603 617.402,182.77 618.5,182C 619.959,182.355 621.293,182.189 622.5,181.5 Z"/></g>
<g><path style="opacity:1" fill="#444445" d="M 594.5,197.5 C 594.279,196.265 593.612,195.265 592.5,194.5C 593.127,193.583 593.461,192.583 593.5,191.5C 594.496,191.414 595.329,191.748 596,192.5C 596.333,191.833 596.667,191.167 597,190.5C 597.833,193.478 597,195.811 594.5,197.5 Z"/></g>
<g><path style="opacity:1" fill="#959696" d="M 522.5,200.5 C 524.337,200.639 524.67,201.306 523.5,202.5C 522.702,202.043 522.369,201.376 522.5,200.5 Z"/></g>
<g><path style="opacity:1" fill="#868686" d="M 538.5,200.5 C 540.415,200.216 542.081,200.549 543.5,201.5C 543.062,201.435 542.728,201.601 542.5,202C 543.167,202.333 543.833,202.667 544.5,203C 542.527,203.495 540.527,203.662 538.5,203.5C 538.5,202.5 538.5,201.5 538.5,200.5 Z"/></g>
<g><path style="opacity:1" fill="#545555" d="M 614.5,200.5 C 615.043,200.56 615.376,200.893 615.5,201.5C 615.154,202.696 614.654,202.696 614,201.5C 613.71,203.044 613.044,204.377 612,205.5C 612.109,204.231 611.942,203.231 611.5,202.5C 611.973,201.094 612.973,200.427 614.5,200.5 Z"/></g>
<g><path style="opacity:1" fill="#b3b2b3" d="M 463.5,206.5 C 474.092,206.517 474.092,207.184 463.5,208.5C 462.833,208.333 462.167,208.167 461.5,208C 462.416,207.722 463.082,207.222 463.5,206.5 Z"/></g>
<g><path style="opacity:1" fill="#c7c8c6" d="M 527.5,211.5 C 528.601,210.402 529.934,210.235 531.5,211C 530.436,212.511 529.103,212.677 527.5,211.5 Z"/></g>
<g><path style="opacity:1" fill="#dbdbdb" d="M 474.5,215.5 C 475.756,215.461 476.756,215.961 477.5,217C 475.5,217.667 473.5,217.667 471.5,217C 472.737,216.768 473.737,216.268 474.5,215.5 Z"/></g>
<g><path style="opacity:1" fill="#bbbdbe" d="M 410.5,216.5 C 412.975,216.747 412.975,217.413 410.5,218.5C 409.537,218.03 409.537,217.363 410.5,216.5 Z"/></g>
<g><path style="opacity:1" fill="#8b8b8a" d="M 623.5,216.5 C 625.103,216.312 626.437,216.812 627.5,218C 625.86,218.348 624.527,217.848 623.5,216.5 Z"/></g>
<g><path style="opacity:1" fill="#e0e0e0" d="M 500.5,220.5 C 507.508,220.334 514.508,220.5 521.5,221C 519.589,222.416 517.422,223.25 515,223.5C 510.543,221.78 506.043,221.446 501.5,222.5C 500.702,222.043 500.369,221.376 500.5,220.5 Z"/></g>
<g><path style="opacity:1" fill="#aaabab" d="M 523.5,219.5 C 526.187,219.336 528.854,219.503 531.5,220C 529.302,220.373 527.135,220.873 525,221.5C 523.97,221.164 523.47,220.497 523.5,219.5 Z"/></g>
<g><path style="opacity:1" fill="#b2b2b1" d="M 437.5,220.5 C 438.043,220.56 438.376,220.893 438.5,221.5C 437.295,223.138 435.962,223.471 434.5,222.5C 435.602,221.824 436.602,221.158 437.5,220.5 Z"/></g>
<g><path style="opacity:1" fill="#707172" d="M 471.5,219.5 C 475.257,220.38 475.257,221.713 471.5,223.5C 469.556,222.811 467.556,222.311 465.5,222C 467.101,221.727 468.601,221.227 470,220.5C 471.107,221.712 471.607,221.379 471.5,219.5 Z"/></g>
<g><path style="opacity:1" fill="#cfcfd0" d="M 478.5,220.5 C 481.85,220.335 485.183,220.502 488.5,221C 486.2,221.658 483.867,222.158 481.5,222.5C 479.97,222.36 478.97,221.693 478.5,220.5 Z"/></g>
<g><path style="opacity:1" fill="#fafafa" d="M 644.5,255.5 C 644.842,256.338 645.508,256.672 646.5,256.5C 666.719,266.63 685.385,279.297 702.5,294.5C 706.826,300.826 712.16,306.16 718.5,310.5C 719.223,313.07 720.39,315.403 722,317.5C 732.893,328.704 742.56,340.704 751,353.5C 755.292,356.716 758.126,360.549 759.5,365C 760.667,366.167 761.833,367.333 763,368.5C 767.416,378.161 771.916,387.661 776.5,397C 775.742,398.364 776.242,399.531 778,400.5C 779.22,398.143 780.053,398.476 780.5,401.5C 779.035,402.406 778.035,403.739 777.5,405.5C 778.247,405.736 779.08,406.07 780,406.5C 780.099,408.653 780.933,410.319 782.5,411.5C 783.084,414.245 784.418,416.578 786.5,418.5C 785.456,420.768 785.289,423.101 786,425.5C 787.145,425.619 788.312,425.952 789.5,426.5C 789.491,428.661 788.824,429.994 787.5,430.5C 788.169,433.028 789.002,433.028 790,430.5C 791.788,432.023 791.955,433.69 790.5,435.5C 789.375,436.348 789.375,437.348 790.5,438.5C 793.181,449.733 796.181,460.9 799.5,472C 799.089,473.144 798.756,474.311 798.5,475.5C 799.163,478.806 799.663,482.139 800,485.5C 801.399,488.363 802.399,491.363 803,494.5C 804.689,512.377 804.855,530.044 803.5,547.5C 802.833,547.5 802.5,547.833 802.5,548.5C 803.256,555.491 803.423,562.491 803,569.5C 801.408,580.286 798.574,590.786 794.5,601C 795.328,601.915 796.328,602.581 797.5,603C 795.86,604.395 794.36,605.895 793,607.5C 789.546,625.988 783.046,643.321 773.5,659.5C 771.011,661.655 769.344,664.322 768.5,667.5C 769.167,667.833 769.833,668.167 770.5,668.5C 769.965,670.271 769.131,670.604 768,669.5C 766.991,671.025 766.491,672.692 766.5,674.5C 765.325,674.281 764.325,674.614 763.5,675.5C 764.441,675.489 765.108,675.989 765.5,677C 764.445,678.507 763.445,680.007 762.5,681.5C 761.662,681.842 761.328,682.508 761.5,683.5C 757.863,687.122 755.029,691.455 753,696.5C 751.745,697.211 750.579,698.044 749.5,699C 750.167,699.333 750.833,699.667 751.5,700C 750.167,700.667 748.833,701.333 747.5,702C 748.167,702.333 748.833,702.667 749.5,703C 745.063,708.026 741.23,713.526 738,719.5C 736.022,721.739 733.522,723.072 730.5,723.5C 731.529,723.296 732.529,723.796 733.5,725C 731.709,725.415 730.376,726.415 729.5,728C 731.709,728.957 731.543,730.124 729,731.5C 728.667,731.167 728.333,730.833 728,730.5C 726.951,732.618 725.451,734.284 723.5,735.5C 718.754,740.705 713.421,745.205 707.5,749C 709.795,749.984 709.461,750.817 706.5,751.5C 705.914,751.291 705.414,750.957 705,750.5C 705.355,751.959 705.189,753.293 704.5,754.5C 703.883,754.389 703.383,754.056 703,753.5C 701.296,755.373 699.463,757.04 697.5,758.5C 695.519,760.144 693.519,761.81 691.5,763.5C 691.709,764.086 692.043,764.586 692.5,765C 691.468,766.627 690.134,767.793 688.5,768.5C 688.414,767.504 688.748,766.671 689.5,766C 688.833,765.333 688.167,765.333 687.5,766C 678.908,772.118 670.241,777.952 661.5,783.5C 660.209,783.263 659.209,783.596 658.5,784.5C 652.937,787.418 647.271,790.251 641.5,793C 638.336,796.59 634.336,798.423 629.5,798.5C 628.749,799.376 628.249,800.376 628,801.5C 626.989,800.663 625.822,800.33 624.5,800.5C 624.657,801.873 624.49,803.207 624,804.5C 622.933,802.717 621.433,802.217 619.5,803C 618.167,804 618.167,805 619.5,806C 615.748,806.976 615.082,806.31 617.5,804C 617.167,803.833 616.833,803.667 616.5,803.5C 615.159,805.996 613.159,807.829 610.5,809C 609.101,809.595 607.768,809.428 606.5,808.5C 603.785,810.264 600.785,811.264 597.5,811.5C 597.918,810.778 598.584,810.278 599.5,810C 597.866,809.506 596.199,809.34 594.5,809.5C 589.153,809.76 584.653,811.76 581,815.5C 579.323,814.392 577.823,814.392 576.5,815.5C 571.12,814.74 566.453,816.073 562.5,819.5C 562.704,818.471 562.204,817.471 561,816.5C 558.631,817.268 556.465,818.435 554.5,820C 555.5,820.333 556.5,820.667 557.5,821C 556.167,822 554.833,823 553.5,824C 551.86,824.348 550.527,823.848 549.5,822.5C 550.398,821.842 551.398,821.176 552.5,820.5C 551.042,819.218 549.708,819.218 548.5,820.5C 547.85,820.196 547.183,819.863 546.5,819.5C 546.598,820.616 546.098,821.616 545,822.5C 543.989,822.108 543.489,821.441 543.5,820.5C 541.885,821.154 540.218,821.654 538.5,822C 539.696,822.654 539.696,823.154 538.5,823.5C 537.784,822.689 536.95,822.022 536,821.5C 528.5,824.115 521,824.115 513.5,821.5C 512.348,820.375 511.348,820.375 510.5,821.5C 509.07,821.579 507.736,821.246 506.5,820.5C 505.833,821.167 505.167,821.833 504.5,822.5C 497.772,819.684 490.772,818.851 483.5,820C 484.308,820.308 484.975,820.808 485.5,821.5C 478.922,822.032 472.589,820.865 466.5,818C 468.167,817.667 469.833,817.333 471.5,817C 470.234,816.691 469.067,816.191 468,815.5C 461.189,818.814 454.856,817.814 449,812.5C 440.804,812.526 432.804,810.86 425,807.5C 424.127,807.735 423.293,808.069 422.5,808.5C 421.304,808.154 421.304,807.654 422.5,807C 404.567,801.78 387.733,794.28 372,784.5C 371.667,785.167 371.333,785.833 371,786.5C 369.961,785.29 368.794,784.29 367.5,783.5C 361.261,781.041 355.594,777.541 350.5,773C 349.167,773 347.833,773 346.5,773C 345.07,771.114 343.403,769.447 341.5,768C 340.551,767.383 339.718,767.549 339,768.5C 336.167,765.667 333.333,762.833 330.5,760C 329.5,759.333 328.5,759.333 327.5,760C 329.455,760.953 331.122,762.287 332.5,764C 331.552,764.483 330.552,764.649 329.5,764.5C 329.489,762.314 328.489,761.481 326.5,762C 327.381,762.708 328.047,763.542 328.5,764.5C 325.572,763.409 323.406,761.409 322,758.5C 321.333,759.833 320.667,759.833 320,758.5C 320.498,756.473 320.331,754.473 319.5,752.5C 292.049,729.085 270.382,701.419 254.5,669.5C 254.5,668.833 254.167,668.5 253.5,668.5C 252.304,665.457 250.47,662.791 248,660.5C 247.235,657.804 246.068,655.304 244.5,653C 244.957,652.586 245.291,652.086 245.5,651.5C 243.437,646.878 240.937,642.545 238,638.5C 237.316,637.216 237.483,636.049 238.5,635C 235.428,629.464 232.928,623.631 231,617.5C 230.395,609.411 228.395,601.745 225,594.5C 224.667,595.5 224.333,596.5 224,597.5C 223.682,585.265 221.515,573.265 217.5,561.5C 218.046,557.486 218.379,553.486 218.5,549.5C 217.913,545.555 216.913,541.722 215.5,538C 217.512,536.848 217.678,535.682 216,534.5C 215.333,530.167 215.333,525.833 216,521.5C 216.333,521.167 216.667,520.833 217,520.5C 217.333,521.5 217.667,522.5 218,523.5C 218.422,521.645 218.922,519.811 219.5,518C 219.095,517.055 218.428,516.388 217.5,516C 220.126,514.628 220.792,512.795 219.5,510.5C 219.511,508.983 220.177,507.816 221.5,507C 220.152,505.426 219.486,503.593 219.5,501.5C 220.176,495.93 221.176,490.43 222.5,485C 222.486,483.615 222.152,482.449 221.5,481.5C 221.952,478.124 222.618,474.791 223.5,471.5C 223.291,470.914 222.957,470.414 222.5,470C 223.823,469.184 224.489,468.017 224.5,466.5C 226.054,460.936 227.721,455.269 229.5,449.5C 229.244,448.311 228.911,447.144 228.5,446C 230.385,443.842 231.385,441.342 231.5,438.5C 230.849,439.091 230.182,439.757 229.5,440.5C 228.795,436.853 229.462,433.353 231.5,430C 231.043,429.586 230.709,429.086 230.5,428.5C 231.5,427.167 232.5,425.833 233.5,424.5C 228.877,422.976 228.211,420.309 231.5,416.5C 232.251,417.376 232.751,418.376 233,419.5C 233.383,418.944 233.883,418.611 234.5,418.5C 234.918,419.222 235.584,419.722 236.5,420C 234.481,423.242 233.648,426.742 234,430.5C 237.133,423.844 239.133,416.844 240,409.5C 240.442,407.321 241.442,406.655 243,407.5C 244.548,401.4 246.215,395.4 248,389.5C 248.833,388 250,386.833 251.5,386C 250.742,384.636 251.242,383.469 253,382.5C 253.976,378.184 255.976,374.517 259,371.5C 264.103,360.941 270.437,351.275 278,342.5C 278.684,341.216 278.517,340.049 277.5,339C 280.895,335.982 283.562,332.982 285.5,330C 288.043,326.957 291.043,324.457 294.5,322.5C 293.674,321.549 293.508,320.549 294,319.5C 297,317.167 300,314.833 303,312.5C 303.617,311.551 303.451,310.718 302.5,310C 303.678,309.033 305.011,308.533 306.5,308.5C 307.452,306.955 307.785,305.288 307.5,303.5C 309.798,302.69 312.132,301.856 314.5,301C 319.59,293.908 325.924,288.241 333.5,284C 332.874,283.25 332.374,282.416 332,281.5C 330.867,283.211 329.367,283.711 327.5,283C 332.078,278.385 337.411,275.385 343.5,274C 342.04,274.811 341.707,275.645 342.5,276.5C 350.769,270.199 359.769,265.199 369.5,261.5C 370.298,261.043 370.631,260.376 370.5,259.5C 382.359,255.046 394.359,250.88 406.5,247C 410.748,243.344 415.748,241.344 421.5,241C 423.232,239.008 425.065,237.174 427,235.5C 427.5,235.667 428,235.833 428.5,236C 426.787,237.378 425.453,239.045 424.5,241C 426.272,240.325 428.105,240.491 430,241.5C 435.114,238.999 440.281,236.499 445.5,234C 451.95,232.738 458.283,231.072 464.5,229C 484.756,228.087 505.09,226.42 525.5,224C 526,223.5 526.5,223 527,222.5C 533.871,225.647 541.038,226.314 548.5,224.5C 572.542,229.689 595.875,236.522 618.5,245C 619.833,245.667 620.833,246.667 621.5,248C 629.318,250.191 636.985,252.691 644.5,255.5 Z"/></g>
<g><path style="opacity:1" fill="#cbcaca" d="M 577.5,226.5 C 579.089,225.379 580.756,225.546 582.5,227C 580.735,227.64 579.068,227.473 577.5,226.5 Z"/></g>
<g><path style="opacity:1" fill="#7d7d7e" d="M 589.5,228.5 C 591.337,228.639 591.67,229.306 590.5,230.5C 589.702,230.043 589.369,229.376 589.5,228.5 Z"/></g>
<g><path style="opacity:1" fill="#a1a2a0" d="M 646.5,227.5 C 649.273,227.812 651.607,228.978 653.5,231C 650.392,231.249 648.058,230.083 646.5,227.5 Z"/></g>
<g><path style="opacity:1" fill="#cdcdcd" d="M 450.5,227.5 C 451.991,227.901 453.658,228.068 455.5,228C 450.385,230.067 445.219,231.901 440,233.5C 439.312,232.668 439.479,232.002 440.5,231.5C 444.311,231.027 447.644,229.694 450.5,227.5 Z"/></g>
<g><path style="opacity:1" fill="#cac9ca" d="M 432.5,232.5 C 433.077,231.227 433.743,231.227 434.5,232.5C 434.03,233.463 433.363,233.463 432.5,232.5 Z"/></g>
<g><path style="opacity:1" fill="#e6e7e7" d="M 597.5,232.5 C 596.537,231.637 596.537,230.97 597.5,230.5C 600.41,230.848 602.41,232.348 603.5,235C 604.5,235.333 605.5,235.667 606.5,236C 601.365,236.44 596.698,235.106 592.5,232C 594.107,232.019 595.774,232.185 597.5,232.5 Z"/></g>
<g><path style="opacity:1" fill="#030304" d="M 597.5,232.5 C 599.355,232.272 600.188,232.939 600,234.5C 599.005,233.934 598.172,233.267 597.5,232.5 Z"/></g>
<g><path style="opacity:1" fill="#c1c0bf" d="M 431.5,234.5 C 434.001,234.511 434.168,235.178 432,236.5C 431.536,235.906 431.369,235.239 431.5,234.5 Z"/></g>
<g><path style="opacity:1" fill="#bbbdbc" d="M 608.5,235.5 C 610.983,235.73 611.483,236.397 610,237.5C 608.97,237.164 608.47,236.497 608.5,235.5 Z"/></g>
<g><path style="opacity:1" fill="#bebebf" d="M 411.5,238.5 C 412.386,237.224 413.386,237.224 414.5,238.5C 413.767,239.087 412.767,239.087 411.5,238.5 Z"/></g>
<g><path style="opacity:1" fill="#d2d2d0" d="M 615.5,238.5 C 617.823,239.058 620.157,239.725 622.5,240.5C 619.506,241.833 617.172,241.166 615.5,238.5 Z"/></g>
<g><path style="opacity:1" fill="#d2d3d3" d="M 671.5,241.5 C 673.456,240.199 675.123,240.699 676.5,243C 674.718,243.122 673.052,242.622 671.5,241.5 Z"/></g>
<g><path style="opacity:1" fill="#ebeded" d="M 403.5,244.5 C 407.276,244.469 407.443,245.136 404,246.5C 402.316,246.317 402.15,245.65 403.5,244.5 Z"/></g>
<g><path style="opacity:1" fill="#e0e1e1" d="M 398.5,244.5 C 402.276,244.469 402.443,245.136 399,246.5C 397.316,246.317 397.15,245.65 398.5,244.5 Z"/></g>
<g><path style="opacity:1" fill="#191919" d="M 412.5,244.5 C 416.339,244.612 416.339,245.279 412.5,246.5C 411.537,246.03 411.537,245.363 412.5,244.5 Z"/></g>
<g><path style="opacity:1" fill="#a3a3a3" d="M 623.5,245.5 C 623.917,244.876 624.584,244.543 625.5,244.5C 628.359,244.899 631.026,245.733 633.5,247C 630.038,247.46 626.704,246.96 623.5,245.5 Z"/></g>
<g><path style="opacity:1" fill="#9fa0a1" d="M 635.5,245.5 C 637.423,245.795 639.09,246.628 640.5,248C 637.981,248.741 636.315,247.908 635.5,245.5 Z"/></g>
<g><path style="opacity:1" fill="#d7d7d7" d="M 657.5,257.5 C 654.525,257.693 652.025,256.693 650,254.5C 649.184,255.823 648.017,256.489 646.5,256.5C 645.508,256.672 644.842,256.338 644.5,255.5C 644.489,253.983 643.823,252.816 642.5,252C 640.5,251.333 638.5,250.667 636.5,250C 644.328,250.25 651.328,252.75 657.5,257.5 Z"/></g>
<g><path style="opacity:1" fill="#b7b7b7" d="M 681.5,255.5 C 681.735,254.903 682.235,254.57 683,254.5C 684.505,255.673 686.005,256.839 687.5,258C 686.5,258.667 685.5,258.667 684.5,258C 683.627,256.955 682.627,256.122 681.5,255.5 Z"/></g>
<g><path style="opacity:1" fill="#c1c3c1" d="M 657.5,257.5 C 658.833,257.5 659.5,258.167 659.5,259.5C 658.5,259.167 657.833,258.5 657.5,257.5 Z"/></g>
<g><path style="opacity:1" fill="#afb1b0" d="M 370.5,259.5 C 369.325,259.719 368.325,259.386 367.5,258.5C 368.86,257.335 369.86,257.668 370.5,259.5 Z"/></g>
<g><path style="opacity:1" fill="#e9e9e9" d="M 659.5,259.5 C 660.756,259.461 661.756,259.961 662.5,261C 661.002,261.585 660.002,261.085 659.5,259.5 Z"/></g>
<g><path style="opacity:1" fill="#cdcece" d="M 346.5,266.5 C 347.002,264.915 348.002,264.415 349.5,265C 348.756,266.039 347.756,266.539 346.5,266.5 Z"/></g>
<g><path style="opacity:1" fill="#e4e5e3" d="M 322.5,267.5 C 324.842,267.775 324.842,268.608 322.5,270C 321.5,270.667 320.5,270.667 319.5,270C 320.942,269.623 321.942,268.79 322.5,267.5 Z"/></g>
<g><path style="opacity:1" fill="#999897" d="M 346.5,266.5 C 346.586,267.496 346.252,268.329 345.5,269C 343.924,269.44 342.59,270.273 341.5,271.5C 341.167,271.167 340.833,270.833 340.5,270.5C 341.886,268.258 343.886,266.925 346.5,266.5 Z"/></g>
<g><path style="opacity:1" fill="#e3e2e3" d="M 691.5,268.5 C 693.703,269.052 694.536,270.385 694,272.5C 692.519,271.529 691.685,270.196 691.5,268.5 Z"/></g>
<g><path style="opacity:1" fill="#d7d7d8" d="M 682.5,271.5 C 685.148,273.828 688.148,275.661 691.5,277C 686.838,277.831 683.838,275.997 682.5,271.5 Z"/></g>
<g><path style="opacity:1" fill="#0f0f10" d="M 336.5,277.5 C 338.842,277.775 338.842,278.608 336.5,280C 335.5,280.667 334.5,280.667 333.5,280C 334.942,279.623 335.942,278.79 336.5,277.5 Z"/></g>
<g><path style="opacity:1" fill="#d3d4d4" d="M 325.5,283.5 C 326.465,284.721 326.298,286.054 325,287.5C 323.686,288.313 322.519,289.313 321.5,290.5C 320.479,289.998 320.312,289.332 321,288.5C 322.707,286.963 324.207,285.296 325.5,283.5 Z"/></g>
<g><path style="opacity:1" fill="#dbdcdb" d="M 295.5,283.5 C 296.688,285.496 296.021,286.329 293.5,286C 294.381,285.292 295.047,284.458 295.5,283.5 Z"/></g>
<g><path style="opacity:1" fill="#dfdfde" d="M 729.5,291.5 C 731.2,292.016 732.533,293.016 733.5,294.5C 731.219,295.262 729.886,294.262 729.5,291.5 Z"/></g>
<g><path style="opacity:1" fill="#929292" d="M 313.5,296.5 C 315.657,297.053 315.49,298.053 313,299.5C 312.53,298.423 312.697,297.423 313.5,296.5 Z"/></g>
<g><path style="opacity:1" fill="#e9e8e8" d="M 277.5,302.5 C 279.934,303.354 279.767,304.354 277,305.5C 276.53,304.423 276.697,303.423 277.5,302.5 Z"/></g>
<g><path style="opacity:1" fill="#dcdedc" d="M 274.5,307.5 C 275.525,307.897 275.692,308.563 275,309.5C 273.561,311.014 272.061,311.347 270.5,310.5C 271.901,309.479 273.235,308.479 274.5,307.5 Z"/></g>
<g><path style="opacity:1" fill="#d9d9d9" d="M 266.5,313.5 C 268.337,313.639 268.67,314.306 267.5,315.5C 266.702,315.043 266.369,314.376 266.5,313.5 Z"/></g>
<g><path style="opacity:1" fill="#b2b2b2" d="M 286.5,321.5 C 287.043,321.56 287.376,321.893 287.5,322.5C 285.808,324.359 284.308,326.359 283,328.5C 282.333,327.5 282.333,326.5 283,325.5C 284.376,324.295 285.542,322.962 286.5,321.5 Z"/></g>
<g><path style="opacity:1" fill="#464746" d="M 772.5,337.5 C 773.885,338.574 775.051,339.907 776,341.5C 776.667,342.167 776.667,342.833 776,343.5C 774.053,341.937 772.886,339.937 772.5,337.5 Z"/></g>
<g><path style="opacity:1" fill="#838281" d="M 240.5,348.5 C 242.892,347.632 243.059,348.299 241,350.5C 240.536,349.906 240.369,349.239 240.5,348.5 Z"/></g>
<g><path style="opacity:1" fill="#b2b1af" d="M 778.5,351.5 C 780.085,352.002 780.585,353.002 780,354.5C 778.961,353.756 778.461,352.756 778.5,351.5 Z"/></g>
<g><path style="opacity:1" fill="#eaebeb" d="M 263.5,353.5 C 264.773,354.077 264.773,354.743 263.5,355.5C 262.537,355.03 262.537,354.363 263.5,353.5 Z"/></g>
<g><path style="opacity:1" fill="#d4d6d4" d="M 240.5,356.5 C 243.001,356.511 243.168,357.178 241,358.5C 240.536,357.906 240.369,357.239 240.5,356.5 Z"/></g>
<g><path style="opacity:1" fill="#cacaca" d="M 760.5,357.5 C 759.227,356.923 759.227,356.257 760.5,355.5C 761.463,355.97 761.463,356.637 760.5,357.5 Z"/></g>
<g><path style="opacity:1" fill="#dad9da" d="M 780.5,356.5 C 781.289,356.783 781.956,357.283 782.5,358C 781.184,358.528 780.517,358.028 780.5,356.5 Z"/></g>
<g><path style="opacity:1" fill="#c2c1c2" d="M 236.5,356.5 C 237.239,356.369 237.906,356.536 238.5,357C 237.924,359.268 236.59,360.268 234.5,360C 235.823,359.184 236.489,358.017 236.5,356.5 Z"/></g>
<g><path style="opacity:1" fill="#c7c9c8" d="M 760.5,357.5 C 761.627,358.122 762.627,358.955 763.5,360C 761.511,360.519 760.511,359.686 760.5,357.5 Z"/></g>
<g><path style="opacity:1" fill="#929393" d="M 261.5,359.5 C 262.688,361.496 262.021,362.329 259.5,362C 260.381,361.292 261.047,360.458 261.5,359.5 Z"/></g>
<g><path style="opacity:1" fill="#eaeaea" d="M 235.5,367.5 C 236.171,366.153 236.171,364.986 235.5,364C 236.667,362.833 237.833,361.667 239,360.5C 239.009,363.35 237.842,365.683 235.5,367.5 Z"/></g>
<g><path style="opacity:1" fill="#b0afaf" d="M 254.5,363.5 C 257.001,363.511 257.168,364.178 255,365.5C 254.536,364.906 254.369,364.239 254.5,363.5 Z"/></g>
<g><path style="opacity:1" fill="#4d4d4d" d="M 231.5,361.5 C 232.043,361.56 232.376,361.893 232.5,362.5C 231.194,363.912 230.36,365.579 230,367.5C 229.184,368.823 228.017,369.489 226.5,369.5C 227.383,366.296 229.05,363.629 231.5,361.5 Z"/></g>
<g><path style="opacity:1" fill="#d6d6d7" d="M 766.5,364.5 C 767.289,364.783 767.956,365.283 768.5,366C 767.184,366.528 766.517,366.028 766.5,364.5 Z"/></g>
<g><path style="opacity:1" fill="#d6d6d6" d="M 235.5,367.5 C 235.205,369.423 234.372,371.09 233,372.5C 232.751,370.332 233.584,368.665 235.5,367.5 Z"/></g>
<g><path style="opacity:1" fill="#040404" d="M 424.5,386.5 C 424.814,389.947 425.648,393.28 427,396.5C 427.483,395.552 427.649,394.552 427.5,393.5C 428.117,393.611 428.617,393.944 429,394.5C 429.197,405.448 427.531,416.115 424,426.5C 422.869,425.396 422.035,425.729 421.5,427.5C 421.709,428.086 422.043,428.586 422.5,429C 420.678,432.972 418.678,436.805 416.5,440.5C 414.566,441.11 412.899,442.11 411.5,443.5C 409.59,444.684 409.257,446.184 410.5,448C 409.213,449.786 407.713,449.953 406,448.5C 404.193,450.32 402.027,451.487 399.5,452C 391.918,454.209 384.251,453.875 376.5,451C 372.421,448.45 368.921,445.283 366,441.5C 363.037,436.595 360.87,431.428 359.5,426C 360.935,423.733 360.602,421.733 358.5,420C 358.745,418.089 358.745,416.089 358.5,414C 359.167,413.333 359.833,412.667 360.5,412C 360.694,410.237 360.694,408.403 360.5,406.5C 362.308,402.67 363.808,398.67 365,394.5C 365.995,393.934 366.828,393.267 367.5,392.5C 369.452,391.215 371.118,389.549 372.5,387.5C 372.281,386.325 372.614,385.325 373.5,384.5C 377.706,380.13 382.372,376.297 387.5,373C 391.325,372.113 395.158,371.279 399,370.5C 400.261,370.759 401.261,371.426 402,372.5C 404.831,370.234 407.997,369.9 411.5,371.5C 415.595,373.438 419.262,375.938 422.5,379C 418.056,378.747 417.389,380.58 420.5,384.5C 421.274,385.711 422.107,385.711 423,384.5C 423.717,385.044 424.217,385.711 424.5,386.5 Z"/></g>
<g><path style="opacity:1" fill="#040404" d="M 643.5,429.5 C 642.672,432.988 641.005,435.988 638.5,438.5C 638.225,436.158 637.392,436.158 636,438.5C 634.188,440.304 634.354,441.304 636.5,441.5C 635.602,443.905 634.102,445.905 632,447.5C 631.517,446.552 631.351,445.552 631.5,444.5C 634.494,441.843 634.161,441.177 630.5,442.5C 629.224,443.614 629.224,444.614 630.5,445.5C 629.314,449.517 626.648,452.017 622.5,453C 615.057,454.317 607.89,454.817 601,454.5C 596.963,451.398 592.463,449.232 587.5,448C 583.377,445.544 579.877,442.378 577,438.5C 574.572,432.336 572.739,426.003 571.5,419.5C 572.172,412.447 573.172,405.447 574.5,398.5C 575.478,398.023 576.311,397.357 577,396.5C 577.483,392.533 578.816,388.866 581,385.5C 584.016,382.651 586.85,379.651 589.5,376.5C 596.432,373.967 603.432,371.634 610.5,369.5C 619.28,373.039 627.947,376.873 636.5,381C 635.692,381.308 635.025,381.808 634.5,382.5C 635.651,383.731 636.817,383.731 638,382.5C 639.959,384.526 640.793,386.692 640.5,389C 641.167,389.333 641.833,389.667 642.5,390C 640.842,390.725 640.342,391.892 641,393.5C 642.724,390.83 643.891,391.163 644.5,394.5C 643.975,395.192 643.308,395.692 642.5,396C 643.711,397.113 643.711,398.28 642.5,399.5C 643.355,400.293 644.189,399.96 645,398.5C 645.457,401.796 646.291,404.963 647.5,408C 647.063,410.449 647.063,412.783 647.5,415C 646.214,419.942 644.881,424.775 643.5,429.5 Z"/></g>
<g><path style="opacity:1" fill="#707071" d="M 766.5,368.5 C 767.189,367.226 768.023,367.226 769,368.5C 770.751,370.212 771.418,372.212 771,374.5C 769.723,372.253 768.223,370.253 766.5,368.5 Z"/></g>
<g><path style="opacity:1" fill="#eae9e8" d="M 773.5,385.5 C 775.085,386.002 775.585,387.002 775,388.5C 773.961,387.756 773.461,386.756 773.5,385.5 Z"/></g>
<g><path style="opacity:1" fill="#666666" d="M 372.5,387.5 C 371.118,389.549 369.452,391.215 367.5,392.5C 367.569,389.916 368.735,387.916 371,386.5C 371.383,387.056 371.883,387.389 372.5,387.5 Z"/></g>
<g><path style="opacity:1" fill="#d6d7d7" d="M 224.5,384.5 C 225.239,384.369 225.906,384.536 226.5,385C 222.499,395.147 221.832,394.98 224.5,384.5 Z"/></g>
<g><path style="opacity:1" fill="#535353" d="M 427.5,393.5 C 427.649,394.552 427.483,395.552 427,396.5C 425.648,393.28 424.814,389.947 424.5,386.5C 425.423,385.697 426.423,385.53 427.5,386C 427.649,388.482 427.649,390.982 427.5,393.5 Z"/></g>
<g><path style="opacity:1" fill="#9b9b9b" d="M 422.5,392.5 C 424.337,392.639 424.67,393.306 423.5,394.5C 422.702,394.043 422.369,393.376 422.5,392.5 Z"/></g>
<g><path style="opacity:1" fill="#d2d3d3" d="M 389.5,397.5 C 390.713,398.497 390.546,399.497 389,400.5C 388.53,399.423 388.697,398.423 389.5,397.5 Z"/></g>
<g><path style="opacity:1" fill="#eeeced" d="M 785.5,399.5 C 786.289,399.783 786.956,400.283 787.5,401C 786.184,401.528 785.517,401.028 785.5,399.5 Z"/></g>
<g><path style="opacity:1" fill="#818181" d="M 780.5,401.5 C 781.446,404.672 782.779,407.672 784.5,410.5C 784.043,411.298 783.376,411.631 782.5,411.5C 780.933,410.319 780.099,408.653 780,406.5C 779.08,406.07 778.247,405.736 777.5,405.5C 778.035,403.739 779.035,402.406 780.5,401.5 Z"/></g>
<g><path style="opacity:1" fill="#b2b3b3" d="M 216.5,406.5 C 217.077,405.227 217.743,405.227 218.5,406.5C 218.03,407.463 217.363,407.463 216.5,406.5 Z"/></g>
<g><path style="opacity:1" fill="#9c9d9c" d="M 237.5,404.5 C 239.008,407.122 238.508,409.455 236,411.5C 236.437,409.243 236.937,406.91 237.5,404.5 Z"/></g>
<g><path style="opacity:1" fill="#b3b4b3" d="M 233.5,411.5 C 235.76,412.238 235.927,413.238 234,414.5C 233.517,413.552 233.351,412.552 233.5,411.5 Z"/></g>
<g><path style="opacity:1" fill="#dadbdb" d="M 423.5,413.5 C 425.739,415.001 425.739,416.334 423.5,417.5C 422.708,416.3 422.708,414.967 423.5,413.5 Z"/></g>
<g><path style="opacity:1" fill="#ebecec" d="M 234.5,418.5 C 234.709,417.078 235.209,415.745 236,414.5C 236.844,416.463 236.344,417.796 234.5,418.5 Z"/></g>
<g><path style="opacity:1" fill="#d6d5d4" d="M 420.5,421.5 C 422.337,421.639 422.67,422.306 421.5,423.5C 420.702,423.043 420.369,422.376 420.5,421.5 Z"/></g>
<g><path style="opacity:1" fill="#c8c8c8" d="M 792.5,429.5 C 791.728,428.306 790.728,427.306 789.5,426.5C 788.748,424.9 787.748,423.4 786.5,422C 787.967,420.902 788.801,419.402 789,417.5C 790.985,421.259 792.152,425.259 792.5,429.5 Z"/></g>
<g><path style="opacity:1" fill="#eeefee" d="M 812.5,422.5 C 814.377,423.659 814.877,425.326 814,427.5C 812.991,425.975 812.491,424.308 812.5,422.5 Z"/></g>
<g><path style="opacity:1" fill="#7c7d7c" d="M 366.5,424.5 C 368.085,425.002 368.585,426.002 368,427.5C 366.961,426.756 366.461,425.756 366.5,424.5 Z"/></g>
<g><path style="opacity:1" fill="#e6e7e7" d="M 643.5,429.5 C 642.685,430.429 641.852,431.429 641,432.5C 640.91,430.124 641.41,427.791 642.5,425.5C 643.429,426.689 643.762,428.022 643.5,429.5 Z"/></g>
<g><path style="opacity:1" fill="#d0d0d0" d="M 817.5,426.5 C 817.627,428.915 817.793,431.249 818,433.5C 815.015,430.593 814.848,428.26 817.5,426.5 Z"/></g>
<g><path style="opacity:1" fill="#a5a6a6" d="M 792.5,429.5 C 794.088,430.635 794.421,431.969 793.5,433.5C 792.571,432.311 792.238,430.978 792.5,429.5 Z"/></g>
<g><path style="opacity:1" fill="#121212" d="M 231.5,438.5 C 231.523,436.073 232.023,433.74 233,431.5C 233.588,434.139 233.088,436.473 231.5,438.5 Z"/></g>
<g><path style="opacity:1" fill="#aeb0b0" d="M 638.5,438.5 C 637.094,438.973 636.427,439.973 636.5,441.5C 634.354,441.304 634.188,440.304 636,438.5C 637.392,436.158 638.225,436.158 638.5,438.5 Z"/></g>
<g><path style="opacity:1" fill="#bfbfc0" d="M 223.5,444.5 C 223.341,441.813 224.175,439.48 226,437.5C 225.925,440.085 225.092,442.418 223.5,444.5 Z"/></g>
<g><path style="opacity:1" fill="#08090a" d="M 638.5,438.5 C 638.573,440.027 637.906,441.027 636.5,441.5C 636.427,439.973 637.094,438.973 638.5,438.5 Z"/></g>
<g><path style="opacity:1" fill="#818282" d="M 790.5,435.5 C 791.912,437.98 793.578,440.313 795.5,442.5C 795.062,443.506 794.396,443.506 793.5,442.5C 792.479,441.099 791.479,439.765 790.5,438.5C 789.375,437.348 789.375,436.348 790.5,435.5 Z"/></g>
<g><path style="opacity:1" fill="#9c9d9d" d="M 416.5,440.5 C 417.043,440.56 417.376,440.893 417.5,441.5C 415.975,445.195 413.975,445.861 411.5,443.5C 412.899,442.11 414.566,441.11 416.5,440.5 Z"/></g>
<g><path style="opacity:1" fill="#f4f4f5" d="M 631.5,444.5 C 630.833,444.5 630.5,444.833 630.5,445.5C 629.224,444.614 629.224,443.614 630.5,442.5C 634.161,441.177 634.494,441.843 631.5,444.5 Z"/></g>
<g><path style="opacity:1" fill="#e5e7e7" d="M 816.5,441.5 C 816.56,440.957 816.893,440.624 817.5,440.5C 818.583,441.365 818.749,442.365 818,443.5C 817.722,442.584 817.222,441.918 816.5,441.5 Z"/></g>
<g><path style="opacity:1" fill="#888a8a" d="M 223.5,444.5 C 223.361,446.337 222.694,446.67 221.5,445.5C 221.957,444.702 222.624,444.369 223.5,444.5 Z"/></g>
<g><path style="opacity:1" fill="#c1c2c2" d="M 797.5,444.5 C 799.337,444.639 799.67,445.306 798.5,446.5C 797.702,446.043 797.369,445.376 797.5,444.5 Z"/></g>
<g><path style="opacity:1" fill="#808180" d="M 226.5,450.5 C 226.167,450.5 225.833,450.5 225.5,450.5C 225.082,449.778 224.416,449.278 223.5,449C 224.667,448.5 225.5,447.667 226,446.5C 227.768,447.682 227.935,449.015 226.5,450.5 Z"/></g>
<g><path style="opacity:1" fill="#f2f1f1" d="M 400.5,448.5 C 401.077,447.227 401.743,447.227 402.5,448.5C 402.03,449.463 401.363,449.463 400.5,448.5 Z"/></g>
<g><path style="opacity:1" fill="#929294" d="M 621.5,448.5 C 623.337,448.639 623.67,449.306 622.5,450.5C 621.702,450.043 621.369,449.376 621.5,448.5 Z"/></g>
<g><path style="opacity:1" fill="#161616" d="M 822.5,449.5 C 825.198,453.363 826.031,457.696 825,462.5C 824.339,459.266 823.173,456.266 821.5,453.5C 821.846,452.151 822.179,450.817 822.5,449.5 Z"/></g>
<g><path style="opacity:1" fill="#c0c1c2" d="M 202.5,451.5 C 203.289,451.783 203.956,452.283 204.5,453C 203.184,453.528 202.517,453.028 202.5,451.5 Z"/></g>
<g><path style="opacity:1" fill="#f1f1f1" d="M 225.5,450.5 C 225.833,450.5 226.167,450.5 226.5,450.5C 226.852,453.073 226.352,455.406 225,457.5C 224.5,456.5 224,455.5 223.5,454.5C 223.846,453.304 224.346,453.304 225,454.5C 225.49,453.207 225.657,451.873 225.5,450.5 Z"/></g>
<g><path style="opacity:1" fill="#dbdcdc" d="M 202.5,457.5 C 203.376,457.369 204.043,457.702 204.5,458.5C 203.897,459.635 203.564,460.635 203.5,461.5C 202.571,460.311 202.238,458.978 202.5,457.5 Z"/></g>
<g><path style="opacity:1" fill="#d5d6d6" d="M 221.5,458.5 C 223.973,458.947 224.14,459.947 222,461.5C 221.517,460.552 221.351,459.552 221.5,458.5 Z"/></g>
<g><path style="opacity:1" fill="#e3e3e3" d="M 224.5,466.5 C 222.827,467.343 221.66,468.676 221,470.5C 220.818,473.226 220.318,475.893 219.5,478.5C 218.055,472.718 219.055,467.385 222.5,462.5C 223.705,463.577 224.372,464.91 224.5,466.5 Z"/></g>
<g><path style="opacity:1" fill="#d3d4d3" d="M 800.5,456.5 C 802.607,465.632 804.107,474.965 805,484.5C 804.15,479.655 802.817,474.989 801,470.5C 800.501,465.845 800.334,461.179 800.5,456.5 Z"/></g>
<g><path style="opacity:1" fill="#4d4e4d" d="M 197.5,471.5 C 196.503,471.53 195.836,471.03 195.5,470C 197.094,465.686 197.761,466.186 197.5,471.5 Z"/></g>
<g><path style="opacity:1" fill="#d6d7d6" d="M 205.5,471.5 C 207.76,472.238 207.927,473.238 206,474.5C 205.517,473.552 205.351,472.552 205.5,471.5 Z"/></g>
<g><path style="opacity:1" fill="#919190" d="M 823.5,471.5 C 824.848,472.527 825.348,473.86 825,475.5C 823.812,474.437 823.312,473.103 823.5,471.5 Z"/></g>
<g><path style="opacity:1" fill="#bcbcbc" d="M 201.5,475.5 C 202.043,475.56 202.376,475.893 202.5,476.5C 201.24,477.382 200.074,478.382 199,479.5C 198.333,478.833 198.333,478.167 199,477.5C 199.995,476.934 200.828,476.267 201.5,475.5 Z"/></g>
<g><path style="opacity:1" fill="#7b7c7c" d="M 223.5,476.5 C 225.898,477.882 226.065,479.549 224,481.5C 223.506,479.866 223.34,478.199 223.5,476.5 Z"/></g>
<g><path style="opacity:1" fill="#fafafa" d="M 221.5,481.5 C 221.785,483.288 221.452,484.955 220.5,486.5C 219.359,484.579 219.192,482.579 220,480.5C 220.383,481.056 220.883,481.389 221.5,481.5 Z"/></g>
<g><path style="opacity:1" fill="#6e7070" d="M 192.5,483.5 C 193.713,484.497 193.546,485.497 192,486.5C 191.53,485.423 191.697,484.423 192.5,483.5 Z"/></g>
<g><path style="opacity:1" fill="#a0a1a1" d="M 805.5,485.5 C 806.224,487.218 806.891,489.052 807.5,491C 806.035,491.601 805.035,491.101 804.5,489.5C 805.246,488.264 805.579,486.93 805.5,485.5 Z"/></g>
<g><path style="opacity:1" fill="#696a69" d="M 824.5,490.5 C 825.376,490.369 826.043,490.702 826.5,491.5C 825.855,492.732 825.689,494.065 826,495.5C 824.731,494.095 824.231,492.429 824.5,490.5 Z"/></g>
<g><path style="opacity:1" fill="#838385" d="M 830.5,490.5 C 830.833,491.167 831.167,491.833 831.5,492.5C 830.603,493.598 829.77,493.598 829,492.5C 828.691,491.234 828.191,490.067 827.5,489C 828.788,488.761 829.788,489.261 830.5,490.5 Z"/></g>
<g><path style="opacity:1" fill="#d7d8d7" d="M 218.5,491.5 C 219.874,493.517 219.707,495.517 218,497.5C 218.135,495.575 218.302,493.575 218.5,491.5 Z"/></g>
<g><path style="opacity:1" fill="#abadab" d="M 208.5,491.5 C 209.649,491.791 210.316,492.624 210.5,494C 210.167,494.833 209.833,495.667 209.5,496.5C 208.548,494.955 208.215,493.288 208.5,491.5 Z"/></g>
<g><path style="opacity:1" fill="#e2e1e0" d="M 216.5,499.5 C 219.001,499.511 219.168,500.178 217,501.5C 216.536,500.906 216.369,500.239 216.5,499.5 Z"/></g>
<g><path style="opacity:1" fill="#f4f5f4" d="M 208.5,501.5 C 210.088,502.635 210.421,503.969 209.5,505.5C 208.571,504.311 208.238,502.978 208.5,501.5 Z"/></g>
<g><path style="opacity:1" fill="#dddedd" d="M 219.5,510.5 C 217.691,512.099 216.358,514.099 215.5,516.5C 213.137,514.886 212.471,512.886 213.5,510.5C 214.251,511.376 214.751,512.376 215,513.5C 215.333,513.167 215.667,512.833 216,512.5C 216.333,509.5 216.667,506.5 217,503.5C 218.043,505.833 218.876,508.166 219.5,510.5 Z"/></g>
<g><path style="opacity:1" fill="#7c7d7f" d="M 193.5,509.5 C 194.649,509.791 195.316,510.624 195.5,512C 195.167,512.833 194.833,513.667 194.5,514.5C 193.548,512.955 193.215,511.288 193.5,509.5 Z"/></g>
<g><path style="opacity:1" fill="#bcbcbc" d="M 697.5,517.5 C 696.542,517.953 695.708,518.619 695,519.5C 694.196,518.196 693.029,517.529 691.5,517.5C 689.823,518.187 688.156,518.854 686.5,519.5C 685.475,519.103 685.308,518.437 686,517.5C 687.73,516.26 689.563,515.26 691.5,514.5C 692.955,515.39 694.289,515.39 695.5,514.5C 696.425,515.357 697.092,516.357 697.5,517.5 Z"/></g>
<g><path style="opacity:1" fill="#050505" d="M 336.5,529.5 C 335.557,531.001 335.891,532.335 337.5,533.5C 338.568,534.434 339.901,534.768 341.5,534.5C 341.669,539.041 341.002,539.374 339.5,535.5C 339.167,536 338.833,536.5 338.5,537C 340.35,541.746 342.017,546.413 343.5,551C 343.167,551.333 342.833,551.667 342.5,552C 343.758,553.741 344.758,555.574 345.5,557.5C 344.888,560.304 344.888,563.304 345.5,566.5C 346.5,566.5 347.5,566.5 348.5,566.5C 349.808,570.4 350.808,574.4 351.5,578.5C 351.12,580.698 351.787,582.365 353.5,583.5C 355.101,586.124 356.768,588.79 358.5,591.5C 357.732,592.263 357.232,593.263 357,594.5C 356.617,593.944 356.117,593.611 355.5,593.5C 354.778,593.082 354.278,592.416 354,591.5C 353.458,594.082 354.292,596.082 356.5,597.5C 356.369,598.376 356.702,599.043 357.5,599.5C 358.684,597.954 359.684,596.287 360.5,594.5C 361.584,595.665 362.417,596.998 363,598.5C 363.383,597.944 363.883,597.611 364.5,597.5C 366.498,601.495 368.498,605.495 370.5,609.5C 369.347,610.313 369.347,611.313 370.5,612.5C 368.071,613.881 368.405,614.881 371.5,615.5C 371.709,616.922 372.209,618.255 373,619.5C 373.579,618.072 373.412,616.738 372.5,615.5C 373.234,614.292 373.567,612.959 373.5,611.5C 374.345,612.671 375.011,614.005 375.5,615.5C 375.062,615.435 374.728,615.601 374.5,616C 376.621,619.073 378.621,622.24 380.5,625.5C 380.376,626.107 380.043,626.44 379.5,626.5C 381.196,630.022 381.862,629.356 381.5,624.5C 384.147,631.1 388.647,636.1 395,639.5C 395.718,638.549 396.551,638.383 397.5,639C 398.833,640.333 400.167,641.667 401.5,643C 400.944,643.383 400.611,643.883 400.5,644.5C 406.735,649.063 412.401,654.396 417.5,660.5C 415.972,660.517 415.472,661.184 416,662.5C 416.953,664.373 418.12,664.706 419.5,663.5C 419.932,664.71 420.599,665.71 421.5,666.5C 423.665,665.065 425.165,665.731 426,668.5C 427.711,667.419 429.211,667.752 430.5,669.5C 431.38,671.389 431.38,673.389 430.5,675.5C 431.93,675.421 433.264,675.754 434.5,676.5C 435.463,676.03 435.463,675.363 434.5,674.5C 435.738,673.588 437.072,673.421 438.5,674C 442.394,676.446 446.394,678.612 450.5,680.5C 451.738,680.81 451.738,681.31 450.5,682C 452.55,683.332 454.55,683.498 456.5,682.5C 458.751,683.068 459.918,684.068 460,685.5C 463.579,684.528 466.912,684.528 470,685.5C 479.046,689.517 488.879,691.684 499.5,692C 503.319,694.132 507.319,694.632 511.5,693.5C 517.519,694.057 523.519,694.724 529.5,695.5C 535.184,695.066 540.684,694.066 546,692.5C 547.226,692.645 548.393,692.978 549.5,693.5C 550.696,693.154 550.696,692.654 549.5,692C 555.832,692.527 561.332,690.694 566,686.5C 567.487,687.253 567.654,688.086 566.5,689C 567.5,689.667 568.5,689.667 569.5,689C 569.5,688 569.5,687 569.5,686C 572.198,685.387 574.865,684.72 577.5,684C 580.166,680.996 583.499,678.996 587.5,678C 594.457,674.03 601.124,669.696 607.5,665C 617.004,655.667 627.004,646.833 637.5,638.5C 638.988,633.685 641.655,629.685 645.5,626.5C 651.579,615.599 657.413,604.599 663,593.5C 664.377,588.928 665.877,584.428 667.5,580C 667.167,579.667 666.833,579.333 666.5,579C 668.764,575.553 670.097,571.719 670.5,567.5C 670.747,566.287 671.414,565.62 672.5,565.5C 676.086,553.361 678.92,541.028 681,528.5C 681.466,524.521 683.3,521.521 686.5,519.5C 688.156,518.854 689.823,518.187 691.5,517.5C 693.029,517.529 694.196,518.196 695,519.5C 695.708,518.619 696.542,517.953 697.5,517.5C 698.468,520.115 700.635,522.115 704,523.5C 704.333,522.833 704.667,522.167 705,521.5C 706.411,523.65 707.245,525.984 707.5,528.5C 705.388,526.838 704.222,527.172 704,529.5C 704.333,529.167 704.667,528.833 705,528.5C 706.204,529.471 706.704,530.471 706.5,531.5C 707.182,530.757 707.849,530.091 708.5,529.5C 708.94,532.928 709.273,536.428 709.5,540C 707.07,542.305 706.07,545.138 706.5,548.5C 705.522,548.811 704.855,549.478 704.5,550.5C 705.167,550.833 705.833,551.167 706.5,551.5C 706.137,552.183 705.804,552.85 705.5,553.5C 704.755,556.39 704.088,559.39 703.5,562.5C 702.691,564.028 702.024,565.694 701.5,567.5C 698.833,568.833 698.833,570.167 701.5,571.5C 699.52,577.471 697.52,583.471 695.5,589.5C 693.289,590.193 692.955,591.359 694.5,593C 690.758,601.097 687.258,610.597 684,621.5C 677.215,630.76 670.715,640.093 664.5,649.5C 661.999,649.826 660.832,651.159 661,653.5C 661.69,652.262 662.19,652.262 662.5,653.5C 659.703,658.08 656.203,662.08 652,665.5C 651.517,666.448 651.351,667.448 651.5,668.5C 649.567,668.729 647.9,669.562 646.5,671C 647.696,671.654 647.696,672.154 646.5,672.5C 644.064,671.109 643.398,671.609 644.5,674C 640.667,675.167 638.167,677.667 637,681.5C 636.195,679.099 635.362,679.266 634.5,682C 636.986,682.705 636.986,683.538 634.5,684.5C 634.103,683.475 633.437,683.308 632.5,684C 628.469,689.005 623.469,692.505 617.5,694.5C 612.987,698.588 607.987,701.921 602.5,704.5C 600.177,703.418 597.843,703.585 595.5,705C 594.549,705.718 594.383,706.551 595,707.5C 595.671,706.748 596.504,706.414 597.5,706.5C 586.731,711.935 575.731,717.101 564.5,722C 561.07,722.881 557.737,724.048 554.5,725.5C 553.833,724.833 553.167,724.167 552.5,723.5C 551.575,724.641 550.741,724.641 550,723.5C 549.667,724.167 549.333,724.833 549,725.5C 546.544,725.623 544.044,725.623 541.5,725.5C 539.65,726.242 538.984,727.242 539.5,728.5C 534.494,725.943 529.494,725.943 524.5,728.5C 521.441,727.638 518.441,727.638 515.5,728.5C 510.702,728.022 506.035,727.022 501.5,725.5C 500.228,726.046 498.894,726.379 497.5,726.5C 488.521,725.099 480.521,722.765 473.5,719.5C 476.214,719.75 478.881,719.917 481.5,720C 479.655,718.872 477.655,718.372 475.5,718.5C 474.122,717.766 472.622,717.099 471,716.5C 471.077,717.738 470.911,718.738 470.5,719.5C 467.641,718.821 465.141,717.488 463,715.5C 461.668,717.936 460.501,717.936 459.5,715.5C 434.896,709.87 413.562,698.537 395.5,681.5C 384.888,674.88 375.555,666.88 367.5,657.5C 362.587,651.406 357.754,645.073 353,638.5C 350.167,637 348,634.833 346.5,632C 343.057,631.779 342.724,630.779 345.5,629C 336.09,617.438 329.09,604.605 324.5,590.5C 325.686,588.806 325.519,587.139 324,585.5C 323.722,586.416 323.222,587.082 322.5,587.5C 321.971,585.417 320.971,583.583 319.5,582C 320.247,578.69 319.581,575.524 317.5,572.5C 318.38,569.875 317.713,567.542 315.5,565.5C 315.977,564.522 316.643,563.689 317.5,563C 314.979,559.627 313.313,555.793 312.5,551.5C 312.709,550.914 313.043,550.414 313.5,550C 310.511,542.569 308.511,535.069 307.5,527.5C 307.833,526.833 308.167,526.167 308.5,525.5C 309.814,526.313 310.981,527.313 312,528.5C 314.734,527.638 314.901,526.805 312.5,526C 314.632,525.08 316.632,523.913 318.5,522.5C 317.975,521.808 317.308,521.308 316.5,521C 317.126,520.25 317.626,519.416 318,518.5C 319.726,519.576 321.559,519.743 323.5,519C 322.549,518.282 322.383,517.449 323,516.5C 324.113,517.711 325.28,517.711 326.5,516.5C 330.494,518.329 333.327,521.329 335,525.5C 335.333,524.5 335.667,523.5 336,522.5C 338.081,524.324 337.915,525.991 335.5,527.5C 335.863,528.183 336.196,528.85 336.5,529.5 Z"/></g>
<g><path style="opacity:1" fill="#373738" d="M 216.5,524.5 C 218.337,524.639 218.67,525.306 217.5,526.5C 216.702,526.043 216.369,525.376 216.5,524.5 Z"/></g>
<g><path style="opacity:1" fill="#747575" d="M 707.5,528.5 C 711.838,528.622 712.172,528.955 708.5,529.5C 707.849,530.091 707.182,530.757 706.5,531.5C 706.704,530.471 706.204,529.471 705,528.5C 704.667,528.833 704.333,529.167 704,529.5C 704.222,527.172 705.388,526.838 707.5,528.5 Z"/></g>
<g><path style="opacity:1" fill="#5a5a5a" d="M 337.5,533.5 C 335.891,532.335 335.557,531.001 336.5,529.5C 337.825,530.953 338.658,530.619 339,528.5C 339.599,530.535 339.099,532.201 337.5,533.5 Z"/></g>
<g><path style="opacity:1" fill="#6a6a69" d="M 830.5,532.5 C 830.828,535.982 830.828,539.315 830.5,542.5C 829.167,539.167 829.167,535.833 830.5,532.5 Z"/></g>
<g><path style="opacity:1" fill="#808181" d="M 706.5,548.5 C 707.139,549.097 707.472,549.93 707.5,551C 707.316,552.376 706.649,553.209 705.5,553.5C 705.804,552.85 706.137,552.183 706.5,551.5C 705.833,551.167 705.167,550.833 704.5,550.5C 704.855,549.478 705.522,548.811 706.5,548.5 Z"/></g>
<g><path style="opacity:1" fill="#676665" d="M 802.5,548.5 C 802.5,547.833 802.833,547.5 803.5,547.5C 804.586,547.62 805.253,548.287 805.5,549.5C 805.167,550.167 804.833,550.833 804.5,551.5C 803.824,550.398 803.158,549.398 802.5,548.5 Z"/></g>
<g><path style="opacity:1" fill="#979897" d="M 194.5,551.5 C 194.56,550.957 194.893,550.624 195.5,550.5C 196.583,551.365 196.749,552.365 196,553.5C 195.722,552.584 195.222,551.918 194.5,551.5 Z"/></g>
<g><path style="opacity:1" fill="#9c9c9c" d="M 341.5,553.5 C 342.267,554.172 342.934,555.005 343.5,556C 341.939,556.188 341.272,555.355 341.5,553.5 Z"/></g>
<g><path style="opacity:1" fill="#c3c3c4" d="M 345.5,557.5 C 348.494,559.824 349.494,562.824 348.5,566.5C 347.5,566.5 346.5,566.5 345.5,566.5C 344.888,563.304 344.888,560.304 345.5,557.5 Z"/></g>
<g><path style="opacity:1" fill="#5e5f5e" d="M 703.5,562.5 C 703.932,565.877 703.265,568.877 701.5,571.5C 701.5,570.167 701.5,568.833 701.5,567.5C 702.024,565.694 702.691,564.028 703.5,562.5 Z"/></g>
<g><path style="opacity:1" fill="#a3a3a3" d="M 806.5,559.5 C 807.124,559.917 807.457,560.584 807.5,561.5C 807.07,565.334 806.236,569 805,572.5C 805.218,567.86 805.718,563.527 806.5,559.5 Z"/></g>
<g><path style="opacity:1" fill="#b0b0b0" d="M 672.5,565.5 C 673.239,565.369 673.906,565.536 674.5,566C 671.852,570.833 671.185,570.666 672.5,565.5 Z"/></g>
<g><path style="opacity:1" fill="#e0e0e0" d="M 701.5,567.5 C 701.5,568.833 701.5,570.167 701.5,571.5C 698.833,570.167 698.833,568.833 701.5,567.5 Z"/></g>
<g><path style="opacity:1" fill="#e6e7e5" d="M 193.5,569.5 C 195.099,570.799 195.599,572.465 195,574.5C 193.731,573.095 193.231,571.429 193.5,569.5 Z"/></g>
<g><path style="opacity:1" fill="#7c7c7a" d="M 195.5,582.5 C 195.08,580.326 195.08,578.326 195.5,576.5C 196.793,578.636 196.793,580.636 195.5,582.5 Z"/></g>
<g><path style="opacity:1" fill="#79797a" d="M 351.5,578.5 C 353.767,579.646 354.434,581.313 353.5,583.5C 351.787,582.365 351.12,580.698 351.5,578.5 Z"/></g>
<g><path style="opacity:1" fill="#999998" d="M 670.5,579.5 C 671.376,579.369 672.043,579.702 672.5,580.5C 670.993,584.355 670.326,584.021 670.5,579.5 Z"/></g>
<g><path style="opacity:1" fill="#676768" d="M 324.5,590.5 C 323.599,589.71 322.932,588.71 322.5,587.5C 323.222,587.082 323.722,586.416 324,585.5C 325.519,587.139 325.686,588.806 324.5,590.5 Z"/></g>
<g><path style="opacity:1" fill="#d7d7d7" d="M 801.5,589.5 C 802.606,590.73 803.606,591.896 804.5,593C 803.552,593.483 802.552,593.649 801.5,593.5C 801.509,595.308 801.009,596.975 800,598.5C 800.005,595.464 800.505,592.464 801.5,589.5 Z"/></g>
<g><path style="opacity:1" fill="#939291" d="M 199.5,598.5 C 198.379,596.684 197.879,594.684 198,592.5C 199.319,594.25 199.819,596.25 199.5,598.5 Z"/></g>
<g><path style="opacity:1" fill="#323332" d="M 358.5,591.5 C 361.5,592.5 363.5,594.5 364.5,597.5C 363.883,597.611 363.383,597.944 363,598.5C 362.417,596.998 361.584,595.665 360.5,594.5C 359.684,596.287 358.684,597.954 357.5,599.5C 356.702,599.043 356.369,598.376 356.5,597.5C 356.167,596.167 355.833,594.833 355.5,593.5C 356.117,593.611 356.617,593.944 357,594.5C 357.232,593.263 357.732,592.263 358.5,591.5 Z"/></g>
<g><path style="opacity:1" fill="#d9d8d8" d="M 355.5,593.5 C 355.833,594.833 356.167,596.167 356.5,597.5C 354.292,596.082 353.458,594.082 354,591.5C 354.278,592.416 354.778,593.082 355.5,593.5 Z"/></g>
<g><path style="opacity:1" fill="#edefed" d="M 199.5,598.5 C 201.076,601.228 201.576,604.228 201,607.5C 199.608,604.722 199.108,601.722 199.5,598.5 Z"/></g>
<g><path style="opacity:1" fill="#b1b1b1" d="M 337.5,605.5 C 339.609,606.052 340.442,607.386 340,609.5C 338.519,608.529 337.685,607.196 337.5,605.5 Z"/></g>
<g><path style="opacity:1" fill="#e9e8e8" d="M 658.5,605.5 C 660.085,606.002 660.585,607.002 660,608.5C 658.961,607.756 658.461,606.756 658.5,605.5 Z"/></g>
<g><path style="opacity:1" fill="#d4d5d6" d="M 685.5,608.5 C 686.629,610.666 686.129,612.666 684,614.5C 684.15,612.494 684.65,610.494 685.5,608.5 Z"/></g>
<g><path style="opacity:1" fill="#949694" d="M 226.5,611.5 C 228.332,612.14 228.665,613.14 227.5,614.5C 226.614,613.675 226.281,612.675 226.5,611.5 Z"/></g>
<g><path style="opacity:1" fill="#757576" d="M 370.5,609.5 C 372.027,609.427 373.027,610.094 373.5,611.5C 373.567,612.959 373.234,614.292 372.5,615.5C 372.167,615.5 371.833,615.5 371.5,615.5C 368.405,614.881 368.071,613.881 370.5,612.5C 369.347,611.313 369.347,610.313 370.5,609.5 Z"/></g>
<g><path style="opacity:1" fill="#797979" d="M 655.5,617.5 C 654.721,615.097 655.721,613.93 658.5,614C 657.364,615.145 656.364,616.312 655.5,617.5 Z"/></g>
<g><path style="opacity:1" fill="#868686" d="M 795.5,612.5 C 796.782,613.708 796.782,615.042 795.5,616.5C 795.094,615.443 795.094,614.109 795.5,612.5 Z"/></g>
<g><path style="opacity:1" fill="#f9f8f8" d="M 371.5,615.5 C 371.833,615.5 372.167,615.5 372.5,615.5C 373.412,616.738 373.579,618.072 373,619.5C 372.209,618.255 371.709,616.922 371.5,615.5 Z"/></g>
<g><path style="opacity:1" fill="#c6c7c7" d="M 375.5,615.5 C 378.939,617.389 380.939,620.389 381.5,624.5C 381.862,629.356 381.196,630.022 379.5,626.5C 380.043,626.44 380.376,626.107 380.5,625.5C 378.621,622.24 376.621,619.073 374.5,616C 374.728,615.601 375.062,615.435 375.5,615.5 Z"/></g>
<g><path style="opacity:1" fill="#c9c9c7" d="M 655.5,617.5 C 654.878,618.627 654.045,619.627 653,620.5C 652.481,618.511 653.314,617.511 655.5,617.5 Z"/></g>
<g><path style="opacity:1" fill="#d7d7d6" d="M 205.5,620.5 C 207.462,622.425 208.295,624.758 208,627.5C 206.097,625.559 205.264,623.226 205.5,620.5 Z"/></g>
<g><path style="opacity:1" fill="#e7e8e7" d="M 379.5,626.5 C 376.773,625.633 374.773,623.799 373.5,621C 375.834,622.153 377.834,623.987 379.5,626.5 Z"/></g>
<g><path style="opacity:1" fill="#acabab" d="M 644.5,629.5 C 645.559,631.07 645.059,632.403 643,633.5C 642.7,631.934 643.2,630.601 644.5,629.5 Z"/></g>
<g><path style="opacity:1" fill="#808080" d="M 813.5,629.5 C 814.72,631.05 814.72,632.716 813.5,634.5C 812.167,632.833 812.167,631.167 813.5,629.5 Z"/></g>
<g><path style="opacity:1" fill="#dcdbdc" d="M 640.5,634.5 C 642.337,634.639 642.67,635.306 641.5,636.5C 640.702,636.043 640.369,635.376 640.5,634.5 Z"/></g>
<g><path style="opacity:1" fill="#9ea0a0" d="M 357.5,640.5 C 354.927,639.121 353.427,637.121 353,634.5C 355.127,636.114 356.627,638.114 357.5,640.5 Z"/></g>
<g><path style="opacity:1" fill="#e1e1e1" d="M 810.5,638.5 C 809.105,640.054 808.439,639.721 808.5,637.5C 811.311,632.096 811.978,632.429 810.5,638.5 Z"/></g>
<g><path style="opacity:1" fill="#cccccb" d="M 357.5,640.5 C 359.983,640.73 360.483,641.397 359,642.5C 357.97,642.164 357.47,641.497 357.5,640.5 Z"/></g>
<g><path style="opacity:1" fill="#686767" d="M 211.5,643.5 C 210.599,642.71 209.932,641.71 209.5,640.5C 210.877,639.444 211.71,638.111 212,636.5C 212.309,637.766 212.809,638.933 213.5,640C 212.027,640.71 211.36,641.876 211.5,643.5 Z"/></g>
<g><path style="opacity:1" fill="#e0e1e0" d="M 400.5,644.5 C 401.463,645.363 401.463,646.03 400.5,646.5C 396.722,644.148 396.722,643.481 400.5,644.5 Z"/></g>
<g><path style="opacity:1" fill="#e0e1e0" d="M 394.5,642.5 C 396.085,643.002 396.585,644.002 396,645.5C 394.961,644.756 394.461,643.756 394.5,642.5 Z"/></g>
<g><path style="opacity:1" fill="#c2c2c3" d="M 362.5,646.5 C 360.915,645.998 360.415,644.998 361,643.5C 362.039,644.244 362.539,645.244 362.5,646.5 Z"/></g>
<g><path style="opacity:1" fill="#e5e6e6" d="M 804.5,645.5 C 807.001,645.511 807.168,646.178 805,647.5C 804.536,646.906 804.369,646.239 804.5,645.5 Z"/></g>
<g><path style="opacity:1" fill="#808081" d="M 362.5,646.5 C 365.241,647.439 367.241,649.273 368.5,652C 367.874,652.75 367.374,653.584 367,654.5C 366.262,651.352 364.762,648.685 362.5,646.5 Z"/></g>
<g><path style="opacity:1" fill="#1c1c1c" d="M 217.5,652.5 C 217.631,653.239 217.464,653.906 217,654.5C 214.451,653.41 213.617,651.743 214.5,649.5C 215.735,650.34 216.735,651.34 217.5,652.5 Z"/></g>
<g><path style="opacity:1" fill="#e6e7e8" d="M 403.5,650.5 C 403.5,651.167 403.5,651.833 403.5,652.5C 402.038,651.542 400.705,650.376 399.5,649C 401.066,648.7 402.399,649.2 403.5,650.5 Z"/></g>
<g><path style="opacity:1" fill="#e5e5e7" d="M 406.5,652.5 C 405.5,651.833 404.5,651.167 403.5,650.5C 403.351,649.448 403.517,648.448 404,647.5C 405.372,648.91 406.205,650.577 406.5,652.5 Z"/></g>
<g><path style="opacity:1" fill="#2b2a2a" d="M 359.5,651.5 C 361.686,651.511 362.519,652.511 362,654.5C 360.583,653.922 359.75,652.922 359.5,651.5 Z"/></g>
<g><path style="opacity:1" fill="#757575" d="M 664.5,649.5 C 664.011,650.995 663.345,652.329 662.5,653.5C 662.19,652.262 661.69,652.262 661,653.5C 660.832,651.159 661.999,649.826 664.5,649.5 Z"/></g>
<g><path style="opacity:1" fill="#a0a0a0" d="M 238.5,647.5 C 239.79,648.058 240.623,649.058 241,650.5C 241.251,652.433 241.751,654.266 242.5,656C 242.167,656.167 241.833,656.333 241.5,656.5C 240.623,653.435 239.623,650.435 238.5,647.5 Z"/></g>
<g><path style="opacity:1" fill="#f6f8f9" d="M 406.5,652.5 C 408.983,652.73 409.483,653.397 408,654.5C 406.97,654.164 406.47,653.497 406.5,652.5 Z"/></g>
<g><path style="opacity:1" fill="#bdc0c1" d="M 367.5,657.5 C 367.511,654.999 368.178,654.832 369.5,657C 368.906,657.464 368.239,657.631 367.5,657.5 Z"/></g>
<g><path style="opacity:1" fill="#dbdbdc" d="M 403.5,652.5 C 405.192,654.205 406.525,656.205 407.5,658.5C 405.018,657.337 403.684,655.337 403.5,652.5 Z"/></g>
<g><path style="opacity:1" fill="#939293" d="M 407.5,658.5 C 408.735,658.279 409.735,657.612 410.5,656.5C 411.833,657.5 413.167,658.5 414.5,659.5C 412.009,660.541 412.009,661.374 414.5,662C 414,662.167 413.5,662.333 413,662.5C 411.18,661.021 409.347,659.687 407.5,658.5 Z"/></g>
<g><path style="opacity:1" fill="#929191" d="M 230.5,659.5 C 232.273,660.314 232.773,661.648 232,663.5C 231.209,662.255 230.709,660.922 230.5,659.5 Z"/></g>
<g><path style="opacity:1" fill="#b4b4b5" d="M 220.5,662.5 C 220.517,660.972 221.184,660.472 222.5,661C 224.081,662.828 225.415,664.828 226.5,667C 224.799,667.345 223.466,666.678 222.5,665C 223.412,663.375 222.745,662.541 220.5,662.5 Z"/></g>
<g><path style="opacity:1" fill="#707071" d="M 417.5,660.5 C 419.303,661.046 420.97,661.88 422.5,663C 421.231,662.891 420.231,663.058 419.5,663.5C 418.12,664.706 416.953,664.373 416,662.5C 415.472,661.184 415.972,660.517 417.5,660.5 Z"/></g>
<g><path style="opacity:1" fill="#7f7e7e" d="M 233.5,664.5 C 234.848,665.527 235.348,666.86 235,668.5C 233.812,667.437 233.312,666.103 233.5,664.5 Z"/></g>
<g><path style="opacity:1" fill="#969594" d="M 247.5,667.5 C 249.085,668.002 249.585,669.002 249,670.5C 247.961,669.756 247.461,668.756 247.5,667.5 Z"/></g>
<g><path style="opacity:1" fill="#787777" d="M 253.5,668.5 C 254.167,668.5 254.5,668.833 254.5,669.5C 251.818,670.556 250.651,669.556 251,666.5C 251.708,667.381 252.542,668.047 253.5,668.5 Z"/></g>
<g><path style="opacity:1" fill="#dcddde" d="M 383.5,667.5 C 384.721,666.535 386.054,666.702 387.5,668C 389.329,669.113 390.163,670.613 390,672.5C 387.958,670.564 385.791,668.897 383.5,667.5 Z"/></g>
<g><path style="opacity:1" fill="#cdcdcc" d="M 421.5,666.5 C 423.621,668.734 426.288,670.234 429.5,671C 425.48,672.483 422.814,670.983 421.5,666.5 Z"/></g>
<g><path style="opacity:1" fill="#e1e2e1" d="M 234.5,669.5 C 235.627,670.122 236.627,670.955 237.5,672C 235.511,672.519 234.511,671.686 234.5,669.5 Z"/></g>
<g><path style="opacity:1" fill="#6e6e6f" d="M 430.5,669.5 C 433.297,669.967 434.631,671.633 434.5,674.5C 435.463,675.363 435.463,676.03 434.5,676.5C 433.264,675.754 431.93,675.421 430.5,675.5C 431.38,673.389 431.38,671.389 430.5,669.5 Z"/></g>
<g><path style="opacity:1" fill="#dddddd" d="M 230.5,682.5 C 230.338,680.473 230.505,678.473 231,676.5C 232.493,678.563 232.326,680.563 230.5,682.5 Z"/></g>
<g><path style="opacity:1" fill="#cac9ca" d="M 253.5,676.5 C 253.56,675.957 253.893,675.624 254.5,675.5C 255.583,676.365 255.749,677.365 255,678.5C 254.722,677.584 254.222,676.918 253.5,676.5 Z"/></g>
<g><path style="opacity:1" fill="#dbdcdb" d="M 395.5,681.5 C 395.872,679.344 396.872,679.344 398.5,681.5C 397.767,682.087 396.767,682.087 395.5,681.5 Z"/></g>
<g><path style="opacity:1" fill="#737474" d="M 450.5,680.5 C 450.56,679.957 450.893,679.624 451.5,679.5C 453.145,680.696 454.811,681.696 456.5,682.5C 454.55,683.498 452.55,683.332 450.5,682C 451.738,681.31 451.738,680.81 450.5,680.5 Z"/></g>
<g><path style="opacity:1" fill="#a0a1a1" d="M 400.5,684.5 C 401.386,683.224 402.386,683.224 403.5,684.5C 402.575,685.562 401.575,685.562 400.5,684.5 Z"/></g>
<g><path style="opacity:1" fill="#8d8d8e" d="M 762.5,681.5 C 763.434,682.568 763.768,683.901 763.5,685.5C 761.007,685.869 760.34,685.203 761.5,683.5C 761.328,682.508 761.662,681.842 762.5,681.5 Z"/></g>
<g><path style="opacity:1" fill="#2f2d2e" d="M 634.5,684.5 C 634.483,686.028 633.816,686.528 632.5,686C 633.044,685.283 633.711,684.783 634.5,684.5 Z"/></g>
<g><path style="opacity:1" fill="#dfe0e1" d="M 234.5,687.5 C 236.085,688.002 236.585,689.002 236,690.5C 234.961,689.756 234.461,688.756 234.5,687.5 Z"/></g>
<g><path style="opacity:1" fill="#9d9e9e" d="M 615.5,690.5 C 617.337,690.639 617.67,691.306 616.5,692.5C 615.232,693.428 613.899,693.595 612.5,693C 613.942,692.623 614.942,691.79 615.5,690.5 Z"/></g>
<g><path style="opacity:1" fill="#dddedd" d="M 415.5,692.5 C 415.56,691.957 415.893,691.624 416.5,691.5C 418.833,693 421.167,694.5 423.5,696C 420.275,696.223 417.609,695.057 415.5,692.5 Z"/></g>
<g><path style="opacity:1" fill="#a3a3a5" d="M 496.5,696.5 C 498.086,697.148 499.753,697.648 501.5,698C 500.667,698.167 499.833,698.333 499,698.5C 497.624,698.316 496.791,697.649 496.5,696.5 Z"/></g>
<g><path style="opacity:1" fill="#b6b7b8" d="M 771.5,696.5 C 772.404,697.209 772.737,698.209 772.5,699.5C 771.448,699.649 770.448,699.483 769.5,699C 770.756,698.583 771.423,697.75 771.5,696.5 Z"/></g>
<g><path style="opacity:1" fill="#787978" d="M 602.5,704.5 C 601.07,705.537 599.403,706.204 597.5,706.5C 596.504,706.414 595.671,706.748 595,707.5C 594.383,706.551 594.549,705.718 595.5,705C 597.843,703.585 600.177,703.418 602.5,704.5 Z"/></g>
<g><path style="opacity:1" fill="#e4e4e4" d="M 440.5,704.5 C 440.56,703.957 440.893,703.624 441.5,703.5C 443.925,704.308 446.258,705.308 448.5,706.5C 448.167,706.833 447.833,707.167 447.5,707.5C 445.22,706.298 442.886,705.298 440.5,704.5 Z"/></g>
<g><path style="opacity:1" fill="#dfe0e1" d="M 454.5,710.5 C 454.56,709.957 454.893,709.624 455.5,709.5C 458.565,711.39 461.899,712.557 465.5,713C 461.438,713.879 457.771,713.046 454.5,710.5 Z"/></g>
<g><path style="opacity:1" fill="#8f8e90" d="M 774.5,710.5 C 773.952,712.532 772.619,713.532 770.5,713.5C 771.836,711.99 773.003,710.323 774,708.5C 774.464,709.094 774.631,709.761 774.5,710.5 Z"/></g>
<g><path style="opacity:1" fill="#dbdcdb" d="M 257.5,722.5 C 253.616,719.781 250.616,716.281 248.5,712C 248.833,711.667 249.167,711.333 249.5,711C 247.208,709.71 245.208,708.043 243.5,706C 245.804,706.573 247.971,707.74 250,709.5C 252.323,713.977 254.823,718.31 257.5,722.5 Z"/></g>
<g><path style="opacity:1" fill="#8d8d8c" d="M 473.5,719.5 C 473.842,718.662 474.508,718.328 475.5,718.5C 477.655,718.372 479.655,718.872 481.5,720C 478.881,719.917 476.214,719.75 473.5,719.5 Z"/></g>
<g><path style="opacity:1" fill="#949694" d="M 554.5,721.5 C 555.386,720.224 556.386,720.224 557.5,721.5C 556.767,722.087 555.767,722.087 554.5,721.5 Z"/></g>
<g><path style="opacity:1" fill="#b5b5b5" d="M 765.5,721.5 C 765.611,722.117 765.944,722.617 766.5,723C 765.044,724.745 763.711,726.578 762.5,728.5C 762.089,727.738 761.923,726.738 762,725.5C 761.162,726.999 760.329,727.332 759.5,726.5C 760.893,724.126 762.893,722.459 765.5,721.5 Z"/></g>
<g><path style="opacity:1" fill="#c2c4c3" d="M 285.5,725.5 C 286.077,724.227 286.743,724.227 287.5,725.5C 287.03,726.463 286.363,726.463 285.5,725.5 Z"/></g>
<g><path style="opacity:1" fill="#e9e9e9" d="M 518.5,724.5 C 518.917,723.876 519.584,723.543 520.5,723.5C 522.108,725.262 524.108,726.428 526.5,727C 525.167,727.667 523.833,727.667 522.5,727C 521.692,725.294 520.359,724.461 518.5,724.5 Z"/></g>
<g><path style="opacity:1" fill="#dcdcdc" d="M 257.5,722.5 C 259.451,723.716 260.951,725.382 262,727.5C 262.692,728.437 262.525,729.103 261.5,729.5C 259.396,727.628 258.063,725.295 257.5,722.5 Z"/></g>
<g><path style="opacity:1" fill="#e6e7e8" d="M 261.5,729.5 C 263.229,730.236 264.229,731.57 264.5,733.5C 262.513,732.836 260.846,731.669 259.5,730C 260.094,729.536 260.761,729.369 261.5,729.5 Z"/></g>
<g><path style="opacity:1" fill="#1d1d1e" d="M 723.5,735.5 C 721.632,734.214 721.466,732.881 723,731.5C 723.49,732.793 723.657,734.127 723.5,735.5 Z"/></g>
<g><path style="opacity:1" fill="#b0b2b0" d="M 264.5,733.5 C 266.085,734.002 266.585,735.002 266,736.5C 264.961,735.756 264.461,734.756 264.5,733.5 Z"/></g>
<g><path style="opacity:1" fill="#bebdbd" d="M 267.5,736.5 C 268.922,736.75 269.922,737.583 270.5,739C 268.511,739.519 267.511,738.686 267.5,736.5 Z"/></g>
<g><path style="opacity:1" fill="#d4d5d4" d="M 299.5,738.5 C 299.5,738.833 299.5,739.167 299.5,739.5C 297.629,739.141 296.129,738.141 295,736.5C 294.208,734.413 293.041,732.579 291.5,731C 292.167,730.333 292.833,730.333 293.5,731C 294.714,734.332 296.714,736.832 299.5,738.5 Z"/></g>
<g><path style="opacity:1" fill="#878787" d="M 746.5,738.5 C 748.934,739.354 748.767,740.354 746,741.5C 745.53,740.423 745.697,739.423 746.5,738.5 Z"/></g>
<g><path style="opacity:1" fill="#c2c2c2" d="M 277.5,741.5 C 278.209,740.596 279.209,740.263 280.5,740.5C 280.649,741.552 280.483,742.552 280,743.5C 279.292,742.619 278.458,741.953 277.5,741.5 Z"/></g>
<g><path style="opacity:1" fill="#575858" d="M 299.5,738.5 C 301.062,739.785 302.396,741.285 303.5,743C 303.333,743.5 303.167,744 303,744.5C 301.86,742.721 300.693,741.054 299.5,739.5C 299.5,739.167 299.5,738.833 299.5,738.5 Z"/></g>
<g><path style="opacity:1" fill="#b1b1b1" d="M 276.5,743.5 C 277.289,743.783 277.956,744.283 278.5,745C 277.184,745.528 276.517,745.028 276.5,743.5 Z"/></g>
<g><path style="opacity:1" fill="#c9cbcc" d="M 738.5,747.5 C 740.973,747.947 741.14,748.947 739,750.5C 738.517,749.552 738.351,748.552 738.5,747.5 Z"/></g>
<g><path style="opacity:1" fill="#e3e4e4" d="M 285.5,750.5 C 287.797,751.835 289.797,753.668 291.5,756C 288.474,755.481 286.474,753.648 285.5,750.5 Z"/></g>
<g><path style="opacity:1" fill="#cfcfd0" d="M 310.5,752.5 C 312.496,751.312 313.329,751.979 313,754.5C 312.292,753.619 311.458,752.953 310.5,752.5 Z"/></g>
<g><path style="opacity:1" fill="#18191a" d="M 321.5,753.5 C 322.962,754.458 324.295,755.624 325.5,757C 322.828,757.485 321.495,756.318 321.5,753.5 Z"/></g>
<g><path style="opacity:1" fill="#767677" d="M 704.5,754.5 C 703.067,755.833 701.733,757.333 700.5,759C 699.251,759.74 698.251,759.573 697.5,758.5C 699.463,757.04 701.296,755.373 703,753.5C 703.383,754.056 703.883,754.389 704.5,754.5 Z"/></g>
<g><path style="opacity:1" fill="#cdcdcd" d="M 314.5,756.5 C 315.497,755.287 316.497,755.454 317.5,757C 316.423,757.47 315.423,757.303 314.5,756.5 Z"/></g>
<g><path style="opacity:1" fill="#888988" d="M 291.5,759.5 C 292.922,759.75 293.922,760.583 294.5,762C 292.511,762.519 291.511,761.686 291.5,759.5 Z"/></g>
<g><path style="opacity:1" fill="#676867" d="M 329.5,764.5 C 329.833,765.167 330.167,765.833 330.5,766.5C 329.167,766.5 328.5,765.833 328.5,764.5C 328.047,763.542 327.381,762.708 326.5,762C 328.489,761.481 329.489,762.314 329.5,764.5 Z"/></g>
<g><path style="opacity:1" fill="#979697" d="M 712.5,760.5 C 715.012,761.216 715.012,762.216 712.5,763.5C 711.913,762.767 711.913,761.767 712.5,760.5 Z"/></g>
<g><path style="opacity:1" fill="#e4e3e4" d="M 717.5,763.5 C 719.973,763.947 720.14,764.947 718,766.5C 717.517,765.552 717.351,764.552 717.5,763.5 Z"/></g>
<g><path style="opacity:1" fill="#949596" d="M 295.5,763.5 C 296.627,764.122 297.627,764.955 298.5,766C 296.511,766.519 295.511,765.686 295.5,763.5 Z"/></g>
<g><path style="opacity:1" fill="#e8e8e9" d="M 330.5,766.5 C 331.922,766.709 333.255,767.209 334.5,768C 332.648,768.773 331.314,768.273 330.5,766.5 Z"/></g>
<g><path style="opacity:1" fill="#acacaa" d="M 688.5,768.5 C 687.524,769.815 686.524,771.148 685.5,772.5C 684.068,769.581 685.068,768.248 688.5,768.5 Z"/></g>
<g><path style="opacity:1" fill="#d1d0d1" d="M 304.5,774.5 C 303.504,774.586 302.671,774.252 302,773.5C 301.667,774.167 301.333,774.833 301,775.5C 299.991,773.975 299.491,772.308 299.5,770.5C 302.344,770.343 304.011,771.676 304.5,774.5 Z"/></g>
<g><path style="opacity:1" fill="#f4f5f5" d="M 304.5,774.5 C 307.427,775.757 309.761,777.757 311.5,780.5C 308.573,779.243 306.239,777.243 304.5,774.5 Z"/></g>
<g><path style="opacity:1" fill="#eaebeb" d="M 311.5,780.5 C 314.5,781.033 316,782.7 316,785.5C 314.293,783.963 312.793,782.296 311.5,780.5 Z"/></g>
<g><path style="opacity:1" fill="#bababb" d="M 349.5,782.5 C 351.086,783.413 352.586,783.413 354,782.5C 354.833,784 356,785.167 357.5,786C 355.325,785.951 353.158,785.451 351,784.5C 349.97,784.164 349.47,783.497 349.5,782.5 Z"/></g>
<g><path style="opacity:1" fill="#dfe0de" d="M 367.5,783.5 C 367.053,785.973 366.053,786.14 364.5,784C 365.448,783.517 366.448,783.351 367.5,783.5 Z"/></g>
<g><path style="opacity:1" fill="#767777" d="M 661.5,783.5 C 662.043,783.56 662.376,783.893 662.5,784.5C 661.372,785.262 660.205,785.929 659,786.5C 658.536,785.906 658.369,785.239 658.5,784.5C 659.209,783.596 660.209,783.263 661.5,783.5 Z"/></g>
<g><path style="opacity:1" fill="#767878" d="M 323.5,786.5 C 320.817,786.773 319.317,785.773 319,783.5C 320.878,784.053 322.378,785.053 323.5,786.5 Z"/></g>
<g><path style="opacity:1" fill="#605f5f" d="M 694.5,786.5 C 695.043,786.56 695.376,786.893 695.5,787.5C 693.999,788.752 692.332,789.752 690.5,790.5C 689.167,789.5 689.167,788.5 690.5,787.5C 692.031,788.421 693.365,788.088 694.5,786.5 Z"/></g>
<g><path style="opacity:1" fill="#5d5d5e" d="M 323.5,786.5 C 326.001,787.489 327.501,789.155 328,791.5C 325.585,790.589 324.085,788.922 323.5,786.5 Z"/></g>
<g><path style="opacity:1" fill="#a4a6a4" d="M 366.5,789.5 C 367.721,788.535 369.054,788.702 370.5,790C 369.072,790.579 367.738,790.412 366.5,789.5 Z"/></g>
<g><path style="opacity:1" fill="#8c8d8d" d="M 687.5,792.5 C 689.337,792.639 689.67,793.306 688.5,794.5C 687.702,794.043 687.369,793.376 687.5,792.5 Z"/></g>
<g><path style="opacity:1" fill="#bcbdbc" d="M 382.5,795.5 C 385.022,795.128 387.022,795.961 388.5,798C 385.797,798.605 383.797,797.772 382.5,795.5 Z"/></g>
<g><path style="opacity:1" fill="#b1b1b2" d="M 382.5,800.5 C 384.568,799.967 386.568,799.967 388.5,800.5C 386.484,801.694 384.484,801.694 382.5,800.5 Z"/></g>
<g><path style="opacity:1" fill="#e0dfdf" d="M 677.5,798.5 C 678.376,798.369 679.043,798.702 679.5,799.5C 677.313,802.916 674.313,804.75 670.5,805C 673.68,803.651 676.013,801.484 677.5,798.5 Z"/></g>
<g><path style="opacity:1" fill="#9d9c9d" d="M 404.5,807.5 C 406.456,806.199 408.123,806.699 409.5,809C 407.718,809.122 406.052,808.622 404.5,807.5 Z"/></g>
<g><path style="opacity:1" fill="#cbcaca" d="M 360.5,809.5 C 362.612,810.44 364.612,811.606 366.5,813C 363.399,813.619 361.399,812.452 360.5,809.5 Z"/></g>
<g><path style="opacity:1" fill="#cccccd" d="M 410.5,809.5 C 411.766,810.09 413.099,810.59 414.5,811C 412.537,811.844 411.204,811.344 410.5,809.5 Z"/></g>
<g><path style="opacity:1" fill="#666566" d="M 594.5,809.5 C 596.199,809.34 597.866,809.506 599.5,810C 598.584,810.278 597.918,810.778 597.5,811.5C 596.167,811.5 594.833,811.5 593.5,811.5C 593.833,810.833 594.167,810.167 594.5,809.5 Z"/></g>
<g><path style="opacity:1" fill="#8e8f8e" d="M 622.5,810.5 C 625.797,810.329 626.131,810.995 623.5,812.5C 622.702,812.043 622.369,811.376 622.5,810.5 Z"/></g>
<g><path style="opacity:1" fill="#dfdfdf" d="M 593.5,811.5 C 594.833,811.5 596.167,811.5 597.5,811.5C 593.302,814.431 588.636,815.931 583.5,816C 584.167,815.333 584.833,814.667 585.5,814C 588.26,813.326 590.927,812.493 593.5,811.5 Z"/></g>
<g><path style="opacity:1" fill="#e5e5e3" d="M 649.5,813.5 C 653.339,813.612 653.339,814.279 649.5,815.5C 648.537,815.03 648.537,814.363 649.5,813.5 Z"/></g>
<g><path style="opacity:1" fill="#ededec" d="M 451.5,819.5 C 448.529,819.565 445.862,818.731 443.5,817C 446.77,816.147 449.437,816.98 451.5,819.5 Z"/></g>
<g><path style="opacity:1" fill="#7f7f7f" d="M 646.5,816.5 C 650.588,816.218 651.088,816.885 648,818.5C 646.97,818.164 646.47,817.497 646.5,816.5 Z"/></g>
<g><path style="opacity:1" fill="#efefef" d="M 451.5,819.5 C 456.446,818.48 461.113,818.48 465.5,819.5C 464.086,820.624 462.586,821.624 461,822.5C 457.687,821.68 454.521,820.68 451.5,819.5 Z"/></g>
<g><path style="opacity:1" fill="#e6e6e6" d="M 576.5,815.5 C 579.083,816.092 579.083,816.758 576.5,817.5C 573.215,818.659 569.882,819.159 566.5,819C 569.85,817.514 573.184,816.347 576.5,815.5 Z"/></g>
<g><path style="opacity:1" fill="#7d7e7e" d="M 549.5,822.5 C 548.662,822.158 548.328,821.492 548.5,820.5C 549.708,819.218 551.042,819.218 552.5,820.5C 551.398,821.176 550.398,821.842 549.5,822.5 Z"/></g>
<g><path style="opacity:1" fill="#cac9ca" d="M 486.5,822.5 C 488.995,822.595 491.662,822.262 494.5,821.5C 495.5,822 496.5,822.5 497.5,823C 493.745,823.755 490.078,823.589 486.5,822.5 Z"/></g>
<g><path style="opacity:1" fill="#b8baba" d="M 482.5,824.5 C 484.179,824.892 485.846,825.392 487.5,826C 486.667,826.167 485.833,826.333 485,826.5C 483.624,826.316 482.791,825.649 482.5,824.5 Z"/></g>
<g><path style="opacity:1" fill="#919292" d="M 513.5,821.5 C 512.766,822.708 512.433,824.041 512.5,825.5C 509.881,825.232 507.381,825.565 505,826.5C 504.437,825.275 504.77,824.275 506,823.5C 507.726,824.576 509.559,824.743 511.5,824C 510.748,823.329 510.414,822.496 510.5,821.5C 511.348,820.375 512.348,820.375 513.5,821.5 Z"/></g>
<g><path style="opacity:1" fill="#9e9e9e" d="M 631.5,824.5 C 633.379,824.393 633.712,824.893 632.5,826C 629.125,826.632 628.791,826.132 631.5,824.5 Z"/></g>
<g><path style="opacity:1" fill="#dcdcdb" d="M 405.5,827.5 C 408.377,826.482 411.377,826.649 414.5,828C 411.469,828.495 408.469,828.329 405.5,827.5 Z"/></g>
</svg>
